<svg width="248" height="39" viewBox="0 0 248 39" fill="none" xmlns="http://www.w3.org/2000/svg">
<path d="M87.5411 25.6602L83.7451 18.7702H82.6791V25.6602H78.2331V7.40816H85.6951C87.1338 7.40816 88.3558 7.65949 89.3611 8.16216C90.3838 8.66482 91.1464 9.35815 91.6491 10.2422C92.1518 11.1088 92.4031 12.0795 92.4031 13.1542C92.4031 14.3675 92.0564 15.4508 91.3631 16.4042C90.6871 17.3575 89.6818 18.0335 88.3471 18.4322L92.5591 25.6602H87.5411ZM82.6791 15.6242H85.4351C86.2498 15.6242 86.8564 15.4248 87.2551 15.0262C87.6711 14.6275 87.8791 14.0642 87.8791 13.3362C87.8791 12.6428 87.6711 12.0968 87.2551 11.6982C86.8564 11.2995 86.2498 11.1002 85.4351 11.1002H82.6791V15.6242ZM101.798 25.8682C100.377 25.8682 99.094 25.5648 97.95 24.9582C96.8234 24.3515 95.9307 23.4848 95.272 22.3582C94.6307 21.2315 94.31 19.9142 94.31 18.4062C94.31 16.9155 94.6394 15.6068 95.298 14.4802C95.9567 13.3362 96.858 12.4608 98.002 11.8542C99.146 11.2475 100.429 10.9442 101.85 10.9442C103.271 10.9442 104.554 11.2475 105.698 11.8542C106.842 12.4608 107.743 13.3362 108.402 14.4802C109.061 15.6068 109.39 16.9155 109.39 18.4062C109.39 19.8968 109.052 21.2142 108.376 22.3582C107.717 23.4848 106.807 24.3515 105.646 24.9582C104.502 25.5648 103.219 25.8682 101.798 25.8682ZM101.798 22.0202C102.647 22.0202 103.367 21.7082 103.956 21.0842C104.563 20.4602 104.866 19.5675 104.866 18.4062C104.866 17.2448 104.571 16.3522 103.982 15.7282C103.41 15.1042 102.699 14.7922 101.85 14.7922C100.983 14.7922 100.264 15.1042 99.692 15.7282C99.12 16.3348 98.834 17.2275 98.834 18.4062C98.834 19.5675 99.1114 20.4602 99.666 21.0842C100.238 21.7082 100.949 22.0202 101.798 22.0202ZM120.615 25.6602L116.195 19.5762V25.6602H111.749V6.42016H116.195V17.0542L120.589 11.1522H126.075L120.043 18.4322L126.127 25.6602H120.615ZM141.497 18.1722C141.497 18.5882 141.471 19.0215 141.419 19.4722H131.357C131.426 20.3735 131.712 21.0668 132.215 21.5522C132.735 22.0202 133.368 22.2542 134.113 22.2542C135.222 22.2542 135.994 21.7862 136.427 20.8502H141.159C140.916 21.8035 140.474 22.6615 139.833 23.4242C139.209 24.1868 138.42 24.7848 137.467 25.2182C136.514 25.6515 135.448 25.8682 134.269 25.8682C132.848 25.8682 131.582 25.5648 130.473 24.9582C129.364 24.3515 128.497 23.4848 127.873 22.3582C127.249 21.2315 126.937 19.9142 126.937 18.4062C126.937 16.8982 127.24 15.5808 127.847 14.4542C128.471 13.3275 129.338 12.4608 130.447 11.8542C131.556 11.2475 132.83 10.9442 134.269 10.9442C135.673 10.9442 136.921 11.2388 138.013 11.8282C139.105 12.4175 139.954 13.2582 140.561 14.3502C141.185 15.4422 141.497 16.7162 141.497 18.1722ZM136.947 17.0022C136.947 16.2395 136.687 15.6328 136.167 15.1822C135.647 14.7315 134.997 14.5062 134.217 14.5062C133.472 14.5062 132.839 14.7228 132.319 15.1562C131.816 15.5895 131.504 16.2048 131.383 17.0022H136.947ZM151.928 21.8902V25.6602H149.666C148.054 25.6602 146.798 25.2702 145.896 24.4902C144.995 23.6928 144.544 22.4015 144.544 20.6162V14.8442H142.776V11.1522H144.544V7.61616H148.99V11.1522H151.902V14.8442H148.99V20.6682C148.99 21.1015 149.094 21.4135 149.302 21.6042C149.51 21.7948 149.857 21.8902 150.342 21.8902H151.928ZM165.585 25.6602L161.867 20.0702L158.591 25.6602H153.547L159.397 16.3782L153.417 7.40816H158.591L162.257 12.9202L165.481 7.40816H170.525L164.727 16.6122L170.759 25.6602H165.585Z" fill="white"/>
</svg>
