<svg width="248" height="39" viewBox="0 0 248 39" fill="none" xmlns="http://www.w3.org/2000/svg">
<path d="M82.8568 7.40816V25.6602H78.4108V7.40816H82.8568ZM94.9188 10.9962C96.6175 10.9962 97.9695 11.5508 98.9748 12.6602C99.9975 13.7522 100.509 15.2602 100.509 17.1842V25.6602H96.0888V17.7822C96.0888 16.8115 95.8375 16.0575 95.3348 15.5202C94.8321 14.9828 94.1561 14.7142 93.3068 14.7142C92.4575 14.7142 91.7815 14.9828 91.2788 15.5202C90.7761 16.0575 90.5248 16.8115 90.5248 17.7822V25.6602H86.0788V11.1522H90.5248V13.0762C90.9755 12.4348 91.5821 11.9322 92.3448 11.5682C93.1075 11.1868 93.9655 10.9962 94.9188 10.9962ZM110.878 14.8442H108.486V25.6602H104.04V14.8442H102.428V11.1522H104.04V10.7362C104.04 8.95082 104.552 7.59882 105.574 6.68016C106.597 5.74416 108.096 5.27616 110.072 5.27616C110.402 5.27616 110.644 5.28482 110.8 5.30215V9.07216C109.951 9.02016 109.353 9.14149 109.006 9.43616C108.66 9.73082 108.486 10.2595 108.486 11.0222V11.1522H110.878V14.8442ZM115.203 9.64415C114.423 9.64415 113.782 9.41882 113.279 8.96816C112.794 8.50016 112.551 7.92816 112.551 7.25216C112.551 6.55882 112.794 5.98682 113.279 5.53615C113.782 5.06815 114.423 4.83415 115.203 4.83415C115.966 4.83415 116.59 5.06815 117.075 5.53615C117.578 5.98682 117.829 6.55882 117.829 7.25216C117.829 7.92816 117.578 8.50016 117.075 8.96816C116.59 9.41882 115.966 9.64415 115.203 9.64415ZM117.413 11.1522V25.6602H112.967V11.1522H117.413ZM129.475 10.9962C131.174 10.9962 132.526 11.5508 133.531 12.6602C134.554 13.7522 135.065 15.2602 135.065 17.1842V25.6602H130.645V17.7822C130.645 16.8115 130.394 16.0575 129.891 15.5202C129.389 14.9828 128.713 14.7142 127.863 14.7142C127.014 14.7142 126.338 14.9828 125.835 15.5202C125.333 16.0575 125.081 16.8115 125.081 17.7822V25.6602H120.635V11.1522H125.081V13.0762C125.532 12.4348 126.139 11.9322 126.901 11.5682C127.664 11.1868 128.522 10.9962 129.475 10.9962ZM140.391 9.64415C139.611 9.64415 138.97 9.41882 138.467 8.96816C137.982 8.50016 137.739 7.92816 137.739 7.25216C137.739 6.55882 137.982 5.98682 138.467 5.53615C138.97 5.06815 139.611 4.83415 140.391 4.83415C141.154 4.83415 141.778 5.06815 142.263 5.53615C142.766 5.98682 143.017 6.55882 143.017 7.25216C143.017 7.92816 142.766 8.50016 142.263 8.96816C141.778 9.41882 141.154 9.64415 140.391 9.64415ZM142.601 11.1522V25.6602H138.155V11.1522H142.601ZM153.909 21.8902V25.6602H151.647C150.035 25.6602 148.778 25.2702 147.877 24.4902C146.976 23.6928 146.525 22.4015 146.525 20.6162V14.8442H144.757V11.1522H146.525V7.61616H150.971V11.1522H153.883V14.8442H150.971V20.6682C150.971 21.1015 151.075 21.4135 151.283 21.6042C151.491 21.7948 151.838 21.8902 152.323 21.8902H153.909ZM171.205 11.1522L162.105 32.5502H157.321L160.649 25.1662L154.747 11.1522H159.713L163.067 20.2262L166.395 11.1522H171.205Z" fill="white"/>
</svg>
