<svg width="248" height="39" viewBox="0 0 248 39" fill="none" xmlns="http://www.w3.org/2000/svg">
<path d="M89.4771 13.2842C89.4771 14.3415 89.2344 15.3122 88.7491 16.1962C88.2637 17.0628 87.5184 17.7648 86.5131 18.3022C85.5077 18.8395 84.2597 19.1082 82.7691 19.1082H80.0131V25.6602H75.5671V7.40816H82.7691C84.2251 7.40816 85.4557 7.65949 86.4611 8.16216C87.4664 8.66482 88.2204 9.35815 88.7231 10.2422C89.2257 11.1262 89.4771 12.1402 89.4771 13.2842ZM82.4311 15.5722C83.2804 15.5722 83.9131 15.3728 84.3291 14.9742C84.7451 14.5755 84.9531 14.0122 84.9531 13.2842C84.9531 12.5562 84.7451 11.9928 84.3291 11.5942C83.9131 11.1955 83.2804 10.9962 82.4311 10.9962H80.0131V15.5722H82.4311ZM94.0277 9.64415C93.2477 9.64415 92.6064 9.41882 92.1037 8.96816C91.6184 8.50016 91.3757 7.92816 91.3757 7.25216C91.3757 6.55882 91.6184 5.98682 92.1037 5.53615C92.6064 5.06815 93.2477 4.83415 94.0277 4.83415C94.7904 4.83415 95.4144 5.06815 95.8997 5.53615C96.4024 5.98682 96.6537 6.55882 96.6537 7.25216C96.6537 7.92816 96.4024 8.50016 95.8997 8.96816C95.4144 9.41882 94.7904 9.64415 94.0277 9.64415ZM96.2377 11.1522V25.6602H91.7917V11.1522H96.2377ZM103.906 13.5702C104.426 12.7728 105.076 12.1488 105.856 11.6982C106.636 11.2302 107.502 10.9962 108.456 10.9962V15.7022H107.234C106.124 15.7022 105.292 15.9448 104.738 16.4302C104.183 16.8982 103.906 17.7302 103.906 18.9262V25.6602H99.4597V11.1522H103.906V13.5702ZM109.697 18.3802C109.697 16.8895 109.974 15.5808 110.529 14.4542C111.101 13.3275 111.872 12.4608 112.843 11.8542C113.813 11.2475 114.897 10.9442 116.093 10.9442C117.115 10.9442 118.008 11.1522 118.771 11.5682C119.551 11.9842 120.149 12.5302 120.565 13.2062V11.1522H125.011V25.6602H120.565V23.6062C120.131 24.2822 119.525 24.8282 118.745 25.2442C117.982 25.6602 117.089 25.8682 116.067 25.8682C114.888 25.8682 113.813 25.5648 112.843 24.9582C111.872 24.3342 111.101 23.4588 110.529 22.3322C109.974 21.1882 109.697 19.8708 109.697 18.3802ZM120.565 18.4062C120.565 17.2968 120.253 16.4215 119.629 15.7802C119.022 15.1388 118.277 14.8182 117.393 14.8182C116.509 14.8182 115.755 15.1388 115.131 15.7802C114.524 16.4042 114.221 17.2708 114.221 18.3802C114.221 19.4895 114.524 20.3735 115.131 21.0322C115.755 21.6735 116.509 21.9942 117.393 21.9942C118.277 21.9942 119.022 21.6735 119.629 21.0322C120.253 20.3908 120.565 19.5155 120.565 18.4062ZM136.313 21.8902V25.6602H134.051C132.439 25.6602 131.183 25.2702 130.281 24.4902C129.38 23.6928 128.929 22.4015 128.929 20.6162V14.8442H127.161V11.1522H128.929V7.61616H133.375V11.1522H136.287V14.8442H133.375V20.6682C133.375 21.1015 133.479 21.4135 133.687 21.6042C133.895 21.7948 134.242 21.8902 134.727 21.8902H136.313ZM152.466 18.1722C152.466 18.5882 152.44 19.0215 152.388 19.4722H142.326C142.395 20.3735 142.681 21.0668 143.184 21.5522C143.704 22.0202 144.336 22.2542 145.082 22.2542C146.191 22.2542 146.962 21.7862 147.396 20.8502H152.128C151.885 21.8035 151.443 22.6615 150.802 23.4242C150.178 24.1868 149.389 24.7848 148.436 25.2182C147.482 25.6515 146.416 25.8682 145.238 25.8682C143.816 25.8682 142.551 25.5648 141.442 24.9582C140.332 24.3515 139.466 23.4848 138.842 22.3582C138.218 21.2315 137.906 19.9142 137.906 18.4062C137.906 16.8982 138.209 15.5808 138.816 14.4542C139.44 13.3275 140.306 12.4608 141.416 11.8542C142.525 11.2475 143.799 10.9442 145.238 10.9442C146.642 10.9442 147.89 11.2388 148.982 11.8282C150.074 12.4175 150.923 13.2582 151.53 14.3502C152.154 15.4422 152.466 16.7162 152.466 18.1722ZM147.916 17.0022C147.916 16.2395 147.656 15.6328 147.136 15.1822C146.616 14.7315 145.966 14.5062 145.186 14.5062C144.44 14.5062 143.808 14.7228 143.288 15.1562C142.785 15.5895 142.473 16.2048 142.352 17.0022H147.916ZM164.767 7.40816V25.6602H160.321V7.40816H164.767ZM172.435 7.40816V25.6602H167.989V7.40816H172.435Z" fill="white"/>
</svg>
