<svg width="248" height="39" viewBox="0 0 248 39" fill="none" xmlns="http://www.w3.org/2000/svg">
<path d="M78.7814 25.8422C77.4468 25.8422 76.2508 25.6255 75.1934 25.1922C74.1361 24.7588 73.2868 24.1175 72.6454 23.2682C72.0214 22.4188 71.6921 21.3962 71.6574 20.2002H76.3894C76.4588 20.8762 76.6928 21.3962 77.0914 21.7602C77.4901 22.1068 78.0101 22.2802 78.6514 22.2802C79.3101 22.2802 79.8301 22.1328 80.2114 21.8382C80.5928 21.5262 80.7834 21.1015 80.7834 20.5642C80.7834 20.1135 80.6274 19.7408 80.3154 19.4462C80.0208 19.1515 79.6481 18.9088 79.1974 18.7182C78.7641 18.5275 78.1401 18.3108 77.3254 18.0682C76.1468 17.7042 75.1848 17.3402 74.4394 16.9762C73.6941 16.6122 73.0528 16.0748 72.5154 15.3642C71.9781 14.6535 71.7094 13.7262 71.7094 12.5822C71.7094 10.8835 72.3248 9.55749 73.5554 8.60416C74.7861 7.63349 76.3894 7.14816 78.3654 7.14816C80.3761 7.14816 81.9968 7.63349 83.2274 8.60416C84.4581 9.55749 85.1168 10.8922 85.2034 12.6082H80.3934C80.3588 12.0188 80.1421 11.5595 79.7434 11.2302C79.3448 10.8835 78.8334 10.7102 78.2094 10.7102C77.6721 10.7102 77.2388 10.8575 76.9094 11.1522C76.5801 11.4295 76.4154 11.8368 76.4154 12.3742C76.4154 12.9635 76.6928 13.4228 77.2474 13.7522C77.8021 14.0815 78.6688 14.4368 79.8474 14.8182C81.0261 15.2168 81.9794 15.5982 82.7074 15.9622C83.4528 16.3262 84.0941 16.8548 84.6314 17.5482C85.1688 18.2415 85.4374 19.1342 85.4374 20.2262C85.4374 21.2662 85.1688 22.2108 84.6314 23.0602C84.1114 23.9095 83.3488 24.5855 82.3434 25.0882C81.3381 25.5908 80.1508 25.8422 78.7814 25.8422ZM97.0915 10.9962C98.7555 10.9962 100.09 11.5508 101.096 12.6602C102.101 13.7522 102.604 15.2602 102.604 17.1842V25.6602H98.1835V17.7822C98.1835 16.8115 97.9322 16.0575 97.4295 15.5202C96.9269 14.9828 96.2509 14.7142 95.4015 14.7142C94.5522 14.7142 93.8762 14.9828 93.3735 15.5202C92.8709 16.0575 92.6195 16.8115 92.6195 17.7822V25.6602H88.1735V6.42016H92.6195V13.1022C93.0702 12.4608 93.6855 11.9495 94.4655 11.5682C95.2455 11.1868 96.1209 10.9962 97.0915 10.9962ZM104.809 18.3802C104.809 16.8895 105.086 15.5808 105.641 14.4542C106.213 13.3275 106.984 12.4608 107.955 11.8542C108.926 11.2475 110.009 10.9442 111.205 10.9442C112.228 10.9442 113.12 11.1522 113.883 11.5682C114.663 11.9842 115.261 12.5302 115.677 13.2062V11.1522H120.123V25.6602H115.677V23.6062C115.244 24.2822 114.637 24.8282 113.857 25.2442C113.094 25.6602 112.202 25.8682 111.179 25.8682C110 25.8682 108.926 25.5648 107.955 24.9582C106.984 24.3342 106.213 23.4588 105.641 22.3322C105.086 21.1882 104.809 19.8708 104.809 18.3802ZM115.677 18.4062C115.677 17.2968 115.365 16.4215 114.741 15.7802C114.134 15.1388 113.389 14.8182 112.505 14.8182C111.621 14.8182 110.867 15.1388 110.243 15.7802C109.636 16.4042 109.333 17.2708 109.333 18.3802C109.333 19.4895 109.636 20.3735 110.243 21.0322C110.867 21.6735 111.621 21.9942 112.505 21.9942C113.389 21.9942 114.134 21.6735 114.741 21.0322C115.365 20.3908 115.677 19.5155 115.677 18.4062ZM127.786 13.5702C128.306 12.7728 128.956 12.1488 129.736 11.6982C130.516 11.2302 131.382 10.9962 132.336 10.9962V15.7022H131.114C130.004 15.7022 129.172 15.9448 128.618 16.4302C128.063 16.8982 127.786 17.7302 127.786 18.9262V25.6602H123.34V11.1522H127.786V13.5702ZM143.327 25.6602L138.907 19.5762V25.6602H134.461V6.42016H138.907V17.0542L143.301 11.1522H148.787L142.755 18.4322L148.839 25.6602H143.327ZM160.489 7.40816V25.6602H156.043V7.40816H160.489ZM168.157 7.40816V25.6602H163.711V7.40816H168.157ZM175.825 7.40816V25.6602H171.379V7.40816H175.825Z" fill="white"/>
</svg>
