<svg width="139" height="26" viewBox="0 0 139 26" fill="none" xmlns="http://www.w3.org/2000/svg">
<path d="M35.3486 10.8834C35.3486 11.0143 35.2712 11.157 35.1166 11.3117L31.8777 14.4703L32.645 18.9316C32.651 18.9732 32.654 19.0327 32.654 19.11C32.654 19.2349 32.6227 19.3405 32.5603 19.4268C32.4978 19.513 32.4071 19.5562 32.2881 19.5562C32.1751 19.5562 32.0562 19.5205 31.9312 19.4491L27.925 17.3434L23.9188 19.4491C23.7879 19.5205 23.6689 19.5562 23.5619 19.5562C23.437 19.5562 23.3433 19.513 23.2808 19.4268C23.2184 19.3405 23.1871 19.2349 23.1871 19.11C23.1871 19.0743 23.1931 19.0149 23.205 18.9316L23.9723 14.4703L20.7245 11.3117C20.5758 11.1511 20.5014 11.0083 20.5014 10.8834C20.5014 10.6633 20.668 10.5265 21.0011 10.473L25.4802 9.82164L27.4878 5.76187C27.6008 5.51799 27.7466 5.39604 27.925 5.39604C28.1035 5.39604 28.2492 5.51799 28.3622 5.76187L30.3698 9.82164L34.8489 10.473C35.182 10.5265 35.3486 10.6633 35.3486 10.8834Z" fill="#FBAA33"/>
<path d="M56.3986 10.8834C56.3986 11.0143 56.3212 11.157 56.1666 11.3117L52.9277 14.4703L53.695 18.9316C53.701 18.9732 53.704 19.0327 53.704 19.11C53.704 19.2349 53.6727 19.3405 53.6103 19.4268C53.5478 19.513 53.4571 19.5562 53.3381 19.5562C53.2251 19.5562 53.1061 19.5205 52.9812 19.4491L48.975 17.3434L44.9688 19.4491C44.8379 19.5205 44.7189 19.5562 44.6119 19.5562C44.4869 19.5562 44.3933 19.513 44.3308 19.4268C44.2683 19.3405 44.2371 19.2349 44.2371 19.11C44.2371 19.0743 44.2431 19.0149 44.255 18.9316L45.0223 14.4703L41.7745 11.3117C41.6258 11.1511 41.5514 11.0083 41.5514 10.8834C41.5514 10.6633 41.718 10.5265 42.0511 10.473L46.5302 9.82164L48.5378 5.76187C48.6508 5.51799 48.7965 5.39604 48.975 5.39604C49.1534 5.39604 49.2992 5.51799 49.4122 5.76187L51.4198 9.82164L55.8989 10.473C56.232 10.5265 56.3986 10.6633 56.3986 10.8834Z" fill="#FBAA33"/>
<path d="M77.4486 10.8834C77.4486 11.0143 77.3713 11.157 77.2166 11.3117L73.9777 14.4703L74.745 18.9316C74.751 18.9732 74.754 19.0327 74.754 19.11C74.754 19.2349 74.7227 19.3405 74.6603 19.4268C74.5978 19.513 74.5071 19.5562 74.3881 19.5562C74.2751 19.5562 74.1562 19.5205 74.0312 19.4491L70.025 17.3434L66.0188 19.4491C65.8879 19.5205 65.769 19.5562 65.6619 19.5562C65.537 19.5562 65.4433 19.513 65.3808 19.4268C65.3184 19.3405 65.2871 19.2349 65.2871 19.11C65.2871 19.0743 65.2931 19.0149 65.305 18.9316L66.0723 14.4703L62.8245 11.3117C62.6758 11.1511 62.6014 11.0083 62.6014 10.8834C62.6014 10.6633 62.768 10.5265 63.1011 10.473L67.5802 9.82164L69.5878 5.76187C69.7008 5.51799 69.8466 5.39604 70.025 5.39604C70.2035 5.39604 70.3492 5.51799 70.4622 5.76187L72.4698 9.82164L76.9489 10.473C77.282 10.5265 77.4486 10.6633 77.4486 10.8834Z" fill="#FBAA33"/>
<path d="M98.4986 10.8834C98.4986 11.0143 98.4212 11.157 98.2666 11.3117L95.0277 14.4703L95.795 18.9316C95.801 18.9732 95.804 19.0327 95.804 19.11C95.804 19.2349 95.7727 19.3405 95.7103 19.4268C95.6478 19.513 95.5571 19.5562 95.4381 19.5562C95.3251 19.5562 95.2061 19.5205 95.0812 19.4491L91.075 17.3434L87.0688 19.4491C86.9379 19.5205 86.8189 19.5562 86.7119 19.5562C86.587 19.5562 86.4933 19.513 86.4308 19.4268C86.3683 19.3405 86.3371 19.2349 86.3371 19.11C86.3371 19.0743 86.3431 19.0149 86.355 18.9316L87.1223 14.4703L83.8745 11.3117C83.7258 11.1511 83.6514 11.0083 83.6514 10.8834C83.6514 10.6633 83.818 10.5265 84.1511 10.473L88.6302 9.82164L90.6378 5.76187C90.7508 5.51799 90.8965 5.39604 91.075 5.39604C91.2535 5.39604 91.3992 5.51799 91.5122 5.76187L93.5198 9.82164L97.9989 10.473C98.332 10.5265 98.4986 10.6633 98.4986 10.8834Z" fill="#FBAA33"/>
</svg>
