<svg width="525" height="206" viewBox="0 0 525 206" fill="none" xmlns="http://www.w3.org/2000/svg">
<path d="M21.1117 50.485H17.7497V49.1281H21.1117C21.7627 49.1281 22.2899 49.0244 22.6933 48.817C23.0966 48.6096 23.3904 48.3215 23.5748 47.9527C23.7649 47.584 23.86 47.1634 23.86 46.6909C23.86 46.2588 23.7649 45.8526 23.5748 45.4723C23.3904 45.092 23.0966 44.7867 22.6933 44.5562C22.2899 44.32 21.7627 44.2019 21.1117 44.2019H18.1386V55.4199H16.4706V42.8363H21.1117C22.0624 42.8363 22.8661 43.0005 23.5229 43.329C24.1798 43.6574 24.6782 44.1125 25.0181 44.6945C25.3581 45.2707 25.528 45.9304 25.528 46.6736C25.528 47.4803 25.3581 48.1688 25.0181 48.7392C24.6782 49.3096 24.1798 49.7446 23.5229 50.0442C22.8661 50.3381 22.0624 50.485 21.1117 50.485ZM26.8503 50.848V50.6492C26.8503 49.9751 26.9483 49.35 27.1442 48.7738C27.3401 48.1918 27.6224 47.6877 27.9912 47.2613C28.3599 46.8292 28.8064 46.495 29.3308 46.2588C29.8551 46.0168 30.4428 45.8958 31.0938 45.8958C31.7507 45.8958 32.3413 46.0168 32.8656 46.2588C33.3957 46.495 33.8451 46.8292 34.2138 47.2613C34.5883 47.6877 34.8735 48.1918 35.0694 48.7738C35.2653 49.35 35.3633 49.9751 35.3633 50.6492V50.848C35.3633 51.5221 35.2653 52.1473 35.0694 52.7234C34.8735 53.2996 34.5883 53.8038 34.2138 54.2359C33.8451 54.6623 33.3985 54.9964 32.8742 55.2384C32.3557 55.4747 31.768 55.5928 31.1111 55.5928C30.4543 55.5928 29.8637 55.4747 29.3394 55.2384C28.8151 54.9964 28.3657 54.6623 27.9912 54.2359C27.6224 53.8038 27.3401 53.2996 27.1442 52.7234C26.9483 52.1473 26.8503 51.5221 26.8503 50.848ZM28.4492 50.6492V50.848C28.4492 51.3147 28.504 51.7555 28.6134 52.1703C28.7229 52.5794 28.8871 52.9424 29.1061 53.2593C29.3308 53.5762 29.6102 53.8268 29.9444 54.0112C30.2786 54.1898 30.6675 54.2791 31.1111 54.2791C31.549 54.2791 31.9322 54.1898 32.2606 54.0112C32.5948 53.8268 32.8713 53.5762 33.0903 53.2593C33.3092 52.9424 33.4734 52.5794 33.5829 52.1703C33.6981 51.7555 33.7558 51.3147 33.7558 50.848V50.6492C33.7558 50.1883 33.6981 49.7533 33.5829 49.3442C33.4734 48.9293 33.3063 48.5635 33.0816 48.2466C32.8627 47.9239 32.5861 47.6704 32.252 47.486C31.9235 47.3017 31.5375 47.2095 31.0938 47.2095C30.656 47.2095 30.2699 47.3017 29.9357 47.486C29.6073 47.6704 29.3308 47.9239 29.1061 48.2466C28.8871 48.5635 28.7229 48.9293 28.6134 49.3442C28.504 49.7533 28.4492 50.1883 28.4492 50.6492ZM38.9672 47.8663V59.0152H37.3597V46.0687H38.829L38.9672 47.8663ZM45.2677 50.6665V50.848C45.2677 51.5279 45.187 52.1588 45.0257 52.7407C44.8644 53.3169 44.6281 53.8182 44.317 54.2445C44.0116 54.6709 43.6342 55.0022 43.1848 55.2384C42.7354 55.4747 42.2197 55.5928 41.6378 55.5928C41.0443 55.5928 40.52 55.4948 40.0648 55.2989C39.6097 55.103 39.2236 54.8178 38.9067 54.4433C38.5898 54.0688 38.3363 53.6194 38.1462 53.0951C37.9618 52.5708 37.8351 51.9802 37.7659 51.3233V50.3554C37.8351 49.664 37.9647 49.0446 38.1548 48.4972C38.345 47.9499 38.5956 47.4832 38.9067 47.0971C39.2236 46.7053 39.6068 46.4086 40.0562 46.2069C40.5056 45.9995 41.0242 45.8958 41.6119 45.8958C42.1996 45.8958 42.721 46.011 43.1762 46.2415C43.6313 46.4662 44.0145 46.7889 44.3256 47.2095C44.6368 47.6301 44.8701 48.1342 45.0257 48.7219C45.187 49.3039 45.2677 49.9521 45.2677 50.6665ZM43.6602 50.848V50.6665C43.6602 50.1998 43.6112 49.7619 43.5132 49.3528C43.4153 48.938 43.2626 48.575 43.0552 48.2639C42.8535 47.947 42.5942 47.6992 42.2773 47.5206C41.9605 47.3362 41.5831 47.244 41.1452 47.244C40.7418 47.244 40.3904 47.3132 40.0908 47.4515C39.7969 47.5897 39.5463 47.777 39.3389 48.0132C39.1314 48.2437 38.9615 48.5087 38.829 48.8083C38.7022 49.1022 38.6071 49.4076 38.5438 49.7245V51.9629C38.659 52.3662 38.8203 52.7465 39.0277 53.1037C39.2352 53.4552 39.5117 53.7404 39.8574 53.9593C40.2031 54.1725 40.6381 54.2791 41.1625 54.2791C41.5946 54.2791 41.9662 54.1898 42.2773 54.0112C42.5942 53.8268 42.8535 53.5762 43.0552 53.2593C43.2626 52.9424 43.4153 52.5794 43.5132 52.1703C43.6112 51.7555 43.6602 51.3147 43.6602 50.848ZM53.0287 53.2593V46.0687H54.6362V55.4199H53.1065L53.0287 53.2593ZM53.3312 51.2888L53.9967 51.2715C53.9967 51.8937 53.9304 52.4699 53.7979 53C53.6711 53.5243 53.4637 53.9795 53.1756 54.3655C52.8876 54.7516 52.5102 55.0541 52.0435 55.273C51.5768 55.4862 51.0092 55.5928 50.3409 55.5928C49.8857 55.5928 49.468 55.5265 49.0877 55.394C48.7132 55.2615 48.3905 55.0569 48.1197 54.7804C47.8489 54.5038 47.6386 54.1437 47.4888 53.7C47.3448 53.2564 47.2728 52.7234 47.2728 52.1012V46.0687H48.8716V52.1185C48.8716 52.5391 48.9177 52.8876 49.0099 53.1642C49.1079 53.435 49.2375 53.6511 49.3988 53.8124C49.5659 53.968 49.7503 54.0774 49.952 54.1408C50.1594 54.2042 50.3726 54.2359 50.5915 54.2359C51.2714 54.2359 51.8101 54.1062 52.2077 53.847C52.6052 53.5819 52.8904 53.2276 53.0633 52.7839C53.2419 52.3345 53.3312 51.8361 53.3312 51.2888ZM58.8106 42.1449V55.4199H57.2031V42.1449H58.8106ZM66.8914 53.821V49.0071C66.8914 48.6384 66.8165 48.3186 66.6667 48.0478C66.5227 47.7712 66.3037 47.5581 66.0099 47.4083C65.716 47.2584 65.353 47.1835 64.9209 47.1835C64.5176 47.1835 64.1632 47.2527 63.8579 47.391C63.5583 47.5292 63.322 47.7107 63.1492 47.9354C62.9821 48.1602 62.8985 48.4021 62.8985 48.6614H61.2997C61.2997 48.3272 61.3861 47.9959 61.5589 47.6675C61.7318 47.3391 61.9795 47.0424 62.3022 46.7773C62.6306 46.5065 63.0224 46.2934 63.4776 46.1378C63.9385 45.9765 64.4513 45.8958 65.016 45.8958C65.6959 45.8958 66.2951 46.011 66.8136 46.2415C67.3379 46.472 67.747 46.8206 68.0409 47.2873C68.3405 47.7482 68.4903 48.3272 68.4903 49.0244V53.3803C68.4903 53.6914 68.5162 54.0227 68.5681 54.3742C68.6257 54.7256 68.7092 55.0281 68.8187 55.2816V55.4199H67.1507C67.07 55.2355 67.0066 54.9907 66.9605 54.6853C66.9145 54.3742 66.8914 54.0861 66.8914 53.821ZM67.168 49.7504L67.1853 50.8739H65.5691C65.1139 50.8739 64.7077 50.9114 64.3505 50.9863C63.9933 51.0554 63.6937 51.162 63.4517 51.3061C63.2097 51.4501 63.0253 51.6316 62.8985 51.8505C62.7718 52.0637 62.7084 52.3144 62.7084 52.6024C62.7084 52.8963 62.7747 53.1642 62.9072 53.4062C63.0397 53.6482 63.2385 53.8412 63.5035 53.9853C63.7743 54.1235 64.1056 54.1927 64.4974 54.1927C64.9872 54.1927 65.4193 54.089 65.7938 53.8815C66.1683 53.6741 66.465 53.4206 66.684 53.121C66.9087 52.8214 67.0297 52.5304 67.047 52.2481L67.7297 53.0173C67.6894 53.2593 67.5799 53.5272 67.4013 53.821C67.2227 54.1149 66.9836 54.3972 66.684 54.668C66.3901 54.9331 66.0387 55.1549 65.6296 55.3335C65.2263 55.5063 64.7711 55.5928 64.2641 55.5928C63.6303 55.5928 63.0743 55.4689 62.596 55.2211C62.1236 54.9734 61.7548 54.6421 61.4898 54.2272C61.2305 53.8066 61.1009 53.3371 61.1009 52.8185C61.1009 52.3172 61.1988 51.8765 61.3947 51.4962C61.5906 51.1102 61.873 50.7904 62.2417 50.5369C62.6105 50.2776 63.0541 50.0817 63.5727 49.9492C64.0912 49.8167 64.6703 49.7504 65.3098 49.7504H67.168ZM72.6042 47.5379V55.4199H71.0053V46.0687H72.5609L72.6042 47.5379ZM75.5253 46.0168L75.5167 47.5033C75.3842 47.4745 75.2574 47.4572 75.1364 47.4515C75.0212 47.4399 74.8887 47.4342 74.7389 47.4342C74.3701 47.4342 74.0446 47.4918 73.7623 47.607C73.4799 47.7223 73.2408 47.8836 73.0449 48.091C72.849 48.2984 72.6935 48.5462 72.5782 48.8343C72.4688 49.1166 72.3967 49.4277 72.3622 49.7677L71.9127 50.027C71.9127 49.4623 71.9675 48.9322 72.077 48.4367C72.1922 47.9412 72.3679 47.5033 72.6042 47.123C72.8404 46.737 73.14 46.4374 73.503 46.2242C73.8717 46.0053 74.3096 45.8958 74.8167 45.8958C74.9319 45.8958 75.0644 45.9102 75.2142 45.939C75.364 45.9621 75.4677 45.988 75.5253 46.0168Z" fill="#787878"/>
<g clip-path="url(#clip0_1_502)">
<rect x="15.01" y="62.6699" width="494.16" height="16" rx="4" fill="#151515"/>
<rect x="15.01" y="62.6699" width="444.74" height="16" fill="#FF7657"/>
</g>
<path d="M16.4954 105.873H20.7317C21.6926 105.873 22.5042 106.02 23.1663 106.312C23.8342 106.605 24.3411 107.039 24.6868 107.613C25.0383 108.182 25.2141 108.882 25.2141 109.714C25.2141 110.3 25.094 110.836 24.8538 111.322C24.6194 111.803 24.2795 112.213 23.8342 112.553C23.3948 112.887 22.8674 113.136 22.2522 113.3L21.7776 113.484H17.7961L17.7786 112.104H20.7844C21.3938 112.104 21.9006 111.999 22.3049 111.788C22.7092 111.571 23.0139 111.281 23.219 110.918C23.4241 110.555 23.5266 110.153 23.5266 109.714C23.5266 109.222 23.4299 108.791 23.2366 108.422C23.0432 108.053 22.7385 107.769 22.3225 107.569C21.9124 107.364 21.3821 107.262 20.7317 107.262H18.1917V118.67H16.4954V105.873ZM23.9749 118.67L20.8635 112.869L22.6301 112.86L25.7854 118.564V118.67H23.9749ZM32.9485 117.044V112.148C32.9485 111.773 32.8723 111.448 32.72 111.173C32.5735 110.892 32.3508 110.675 32.052 110.522C31.7532 110.37 31.384 110.294 30.9446 110.294C30.5344 110.294 30.1741 110.364 29.8635 110.505C29.5588 110.646 29.3186 110.83 29.1428 111.059C28.9729 111.287 28.8879 111.533 28.8879 111.797H27.262C27.262 111.457 27.3499 111.12 27.5256 110.786C27.7014 110.452 27.9534 110.15 28.2815 109.881C28.6155 109.605 29.0139 109.389 29.4768 109.23C29.9456 109.066 30.467 108.984 31.0413 108.984C31.7327 108.984 32.342 109.102 32.8694 109.336C33.4026 109.57 33.8186 109.925 34.1174 110.399C34.4221 110.868 34.5745 111.457 34.5745 112.166V116.596C34.5745 116.912 34.6008 117.249 34.6536 117.606C34.7122 117.964 34.7971 118.271 34.9084 118.529V118.67H33.2122C33.1301 118.482 33.0657 118.233 33.0188 117.923C32.9719 117.606 32.9485 117.313 32.9485 117.044ZM33.2297 112.904L33.2473 114.047H31.6038C31.1409 114.047 30.7278 114.085 30.3645 114.161C30.0012 114.231 29.6965 114.34 29.4504 114.486C29.2043 114.633 29.0168 114.817 28.8879 115.04C28.759 115.257 28.6946 115.512 28.6946 115.805C28.6946 116.104 28.762 116.376 28.8967 116.622C29.0315 116.868 29.2336 117.064 29.5032 117.211C29.7786 117.352 30.1155 117.422 30.5139 117.422C31.012 117.422 31.4514 117.316 31.8323 117.105C32.2131 116.895 32.5149 116.637 32.7375 116.332C32.9661 116.027 33.0891 115.731 33.1067 115.444L33.801 116.227C33.76 116.473 33.6487 116.745 33.467 117.044C33.2854 117.343 33.0422 117.63 32.7375 117.905C32.4387 118.175 32.0813 118.4 31.6653 118.582C31.2551 118.758 30.7922 118.846 30.2766 118.846C29.6321 118.846 29.0667 118.72 28.5803 118.468C28.0999 118.216 27.7249 117.879 27.4553 117.457C27.1917 117.029 27.0598 116.552 27.0598 116.024C27.0598 115.515 27.1594 115.066 27.3586 114.68C27.5579 114.287 27.845 113.962 28.22 113.704C28.595 113.44 29.0461 113.241 29.5735 113.106C30.1008 112.972 30.6897 112.904 31.3401 112.904H33.2297ZM41.1135 109.16V110.408H35.9719V109.16H41.1135ZM37.7122 106.849H39.3381V116.314C39.3381 116.637 39.3879 116.88 39.4875 117.044C39.5872 117.208 39.7161 117.316 39.8743 117.369C40.0325 117.422 40.2024 117.448 40.384 117.448C40.5188 117.448 40.6594 117.437 40.8059 117.413C40.9583 117.384 41.0725 117.36 41.1487 117.343L41.1575 118.67C41.0286 118.711 40.8586 118.749 40.6477 118.784C40.4426 118.825 40.1936 118.846 39.9006 118.846C39.5022 118.846 39.136 118.767 38.802 118.608C38.468 118.45 38.2014 118.187 38.0022 117.817C37.8088 117.442 37.7122 116.938 37.7122 116.306V106.849ZM44.7874 109.16V118.67H43.1526V109.16H44.7874ZM43.0295 106.638C43.0295 106.374 43.1086 106.151 43.2668 105.97C43.4309 105.788 43.6711 105.697 43.9875 105.697C44.2981 105.697 44.5354 105.788 44.6995 105.97C44.8694 106.151 44.9543 106.374 44.9543 106.638C44.9543 106.89 44.8694 107.106 44.6995 107.288C44.5354 107.464 44.2981 107.552 43.9875 107.552C43.6711 107.552 43.4309 107.464 43.2668 107.288C43.1086 107.106 43.0295 106.89 43.0295 106.638ZM49.0237 111.19V118.67H47.3977V109.16H48.9358L49.0237 111.19ZM48.637 113.555L47.9602 113.528C47.9661 112.878 48.0627 112.277 48.2502 111.727C48.4377 111.17 48.7014 110.687 49.0413 110.276C49.3811 109.866 49.7854 109.55 50.2542 109.327C50.7288 109.099 51.2532 108.984 51.8274 108.984C52.2961 108.984 52.718 109.049 53.093 109.178C53.468 109.301 53.7874 109.5 54.051 109.775C54.3206 110.051 54.5256 110.408 54.6663 110.848C54.8069 111.281 54.8772 111.812 54.8772 112.438V118.67H53.2424V112.421C53.2424 111.923 53.1692 111.524 53.0227 111.226C52.8762 110.921 52.6624 110.701 52.3811 110.566C52.0999 110.426 51.7542 110.355 51.344 110.355C50.9397 110.355 50.5706 110.44 50.2366 110.61C49.9084 110.78 49.6243 111.015 49.384 111.313C49.1497 111.612 48.9651 111.955 48.8303 112.342C48.7014 112.723 48.637 113.127 48.637 113.555ZM63.5081 109.16H64.9846V118.468C64.9846 119.306 64.8147 120.021 64.4749 120.612C64.135 121.204 63.6604 121.652 63.051 121.957C62.4475 122.268 61.7502 122.423 60.9592 122.423C60.6311 122.423 60.2444 122.37 59.7991 122.265C59.3596 122.165 58.926 121.992 58.4983 121.746C58.0764 121.506 57.7219 121.181 57.4348 120.771L58.2874 119.804C58.6858 120.284 59.1018 120.618 59.5354 120.806C59.9749 120.993 60.4084 121.087 60.8362 121.087C61.3518 121.087 61.7971 120.99 62.1721 120.797C62.5471 120.604 62.8372 120.316 63.0422 119.936C63.2532 119.561 63.3586 119.098 63.3586 118.547V111.252L63.5081 109.16ZM56.9602 114.021V113.836C56.9602 113.109 57.0452 112.45 57.2151 111.858C57.3909 111.261 57.6399 110.748 57.9622 110.32C58.2903 109.893 58.6858 109.564 59.1487 109.336C59.6116 109.102 60.1331 108.984 60.7131 108.984C61.3108 108.984 61.8323 109.09 62.2776 109.301C62.7288 109.506 63.1096 109.808 63.4202 110.206C63.7366 110.599 63.9856 111.073 64.1672 111.63C64.3489 112.187 64.4749 112.816 64.5452 113.52V114.328C64.4807 115.025 64.3547 115.652 64.1672 116.209C63.9856 116.766 63.7366 117.24 63.4202 117.633C63.1096 118.025 62.7288 118.327 62.2776 118.538C61.8264 118.743 61.2991 118.846 60.6956 118.846C60.1272 118.846 59.6116 118.726 59.1487 118.485C58.6917 118.245 58.2991 117.908 57.9709 117.475C57.6428 117.041 57.3909 116.531 57.2151 115.945C57.0452 115.354 56.9602 114.712 56.9602 114.021ZM58.5862 113.836V114.021C58.5862 114.495 58.6331 114.94 58.7268 115.356C58.8264 115.772 58.9758 116.139 59.175 116.455C59.3801 116.771 59.6409 117.021 59.9573 117.202C60.2737 117.378 60.6516 117.466 61.0911 117.466C61.6301 117.466 62.0754 117.352 62.427 117.123C62.7786 116.895 63.0569 116.593 63.262 116.218C63.4729 115.843 63.637 115.436 63.7542 114.996V112.878C63.6897 112.556 63.5901 112.245 63.4553 111.946C63.3264 111.642 63.1565 111.372 62.9456 111.138C62.7405 110.897 62.4856 110.707 62.1809 110.566C61.8762 110.426 61.5188 110.355 61.1086 110.355C60.6633 110.355 60.2795 110.449 59.9573 110.637C59.6409 110.818 59.3801 111.07 59.175 111.393C58.9758 111.709 58.8264 112.078 58.7268 112.5C58.6331 112.916 58.5862 113.361 58.5862 113.836Z" fill="#787878"/>
<g clip-path="url(#clip1_1_502)">
<rect x="15.01" y="125.92" width="450.48" height="16" rx="4" fill="#151515"/>
<rect x="15.01" y="125.92" width="382.9" height="16" fill="#FF7657"/>
</g>
<path d="M19.8616 178.053L22.4016 169.123H23.6321L22.9202 172.595L20.1868 181.92H18.9651L19.8616 178.053ZM17.2336 169.123L19.2551 177.877L19.8616 181.92H18.6487L15.5461 169.123H17.2336ZM26.9192 177.868L28.8967 169.123H30.593L27.4993 181.92H26.2864L26.9192 177.868ZM23.8167 169.123L26.2864 178.053L27.1829 181.92H25.9612L23.3245 172.595L22.6038 169.123H23.8167ZM37.5364 180.294V175.398C37.5364 175.023 37.4602 174.698 37.3079 174.423C37.1614 174.142 36.9387 173.925 36.6399 173.772C36.3411 173.62 35.9719 173.544 35.5325 173.544C35.1223 173.544 34.762 173.614 34.4514 173.755C34.1467 173.896 33.9065 174.08 33.7307 174.309C33.5608 174.537 33.4758 174.783 33.4758 175.047H31.8499C31.8499 174.707 31.9377 174.37 32.1135 174.036C32.2893 173.702 32.5413 173.4 32.8694 173.131C33.2034 172.855 33.6018 172.639 34.0647 172.48C34.5334 172.316 35.0549 172.234 35.6292 172.234C36.3206 172.234 36.9299 172.352 37.4573 172.586C37.9905 172.82 38.4065 173.175 38.7053 173.649C39.01 174.118 39.1624 174.707 39.1624 175.416V179.846C39.1624 180.162 39.1887 180.499 39.2415 180.856C39.3 181.214 39.385 181.521 39.4963 181.779V181.92H37.8C37.718 181.732 37.6536 181.483 37.6067 181.173C37.5598 180.856 37.5364 180.563 37.5364 180.294ZM37.8176 176.154L37.8352 177.297H36.1917C35.7288 177.297 35.3157 177.335 34.9524 177.411C34.5891 177.481 34.2844 177.59 34.0383 177.736C33.7922 177.883 33.6047 178.067 33.4758 178.29C33.3469 178.507 33.2825 178.762 33.2825 179.055C33.2825 179.354 33.3499 179.626 33.4846 179.872C33.6194 180.118 33.8215 180.314 34.0911 180.461C34.3665 180.602 34.7034 180.672 35.1018 180.672C35.5999 180.672 36.0393 180.566 36.4202 180.355C36.801 180.145 37.1028 179.887 37.3254 179.582C37.554 179.277 37.677 178.981 37.6946 178.694L38.3889 179.477C38.3479 179.723 38.2366 179.995 38.0549 180.294C37.8733 180.593 37.6301 180.88 37.3254 181.155C37.0266 181.425 36.6692 181.65 36.2532 181.832C35.843 182.008 35.3801 182.096 34.8645 182.096C34.22 182.096 33.6545 181.97 33.1682 181.718C32.6877 181.466 32.3127 181.129 32.0432 180.707C31.7795 180.279 31.6477 179.802 31.6477 179.274C31.6477 178.765 31.7473 178.316 31.9465 177.93C32.1458 177.537 32.4329 177.212 32.8079 176.954C33.1829 176.69 33.634 176.491 34.1614 176.356C34.6887 176.222 35.2776 176.154 35.928 176.154H37.8176ZM45.7014 172.41V173.658H40.5598V172.41H45.7014ZM42.3 170.099H43.926V179.564C43.926 179.887 43.9758 180.13 44.0754 180.294C44.175 180.458 44.304 180.566 44.4622 180.619C44.6204 180.672 44.7903 180.698 44.9719 180.698C45.1067 180.698 45.2473 180.687 45.3938 180.663C45.5461 180.634 45.6604 180.61 45.7366 180.593L45.7454 181.92C45.6165 181.961 45.4465 181.999 45.2356 182.034C45.0305 182.075 44.7815 182.096 44.4885 182.096C44.0901 182.096 43.7239 182.017 43.3899 181.858C43.0559 181.7 42.7893 181.437 42.5901 181.067C42.3967 180.692 42.3 180.188 42.3 179.556V170.099ZM51.4143 180.76C51.801 180.76 52.1584 180.681 52.4866 180.522C52.8147 180.364 53.0842 180.147 53.2952 179.872C53.5061 179.591 53.6262 179.271 53.6555 178.914H55.2024C55.1731 179.477 54.9827 180.001 54.6311 180.487C54.2854 180.968 53.8313 181.357 53.2688 181.656C52.7063 181.949 52.0881 182.096 51.4143 182.096C50.6995 182.096 50.0754 181.97 49.5422 181.718C49.0149 181.466 48.5754 181.12 48.2239 180.681C47.8782 180.241 47.6174 179.737 47.4417 179.169C47.2717 178.595 47.1868 177.988 47.1868 177.35V176.98C47.1868 176.342 47.2717 175.738 47.4417 175.17C47.6174 174.596 47.8782 174.089 48.2239 173.649C48.5754 173.21 49.0149 172.864 49.5422 172.612C50.0754 172.36 50.6995 172.234 51.4143 172.234C52.1584 172.234 52.8088 172.387 53.3655 172.691C53.9221 172.99 54.3586 173.4 54.675 173.922C54.9973 174.438 55.1731 175.023 55.2024 175.68H53.6555C53.6262 175.287 53.5149 174.933 53.3215 174.616C53.134 174.3 52.8762 174.048 52.5481 173.86C52.2258 173.667 51.8479 173.57 51.4143 173.57C50.9163 173.57 50.4973 173.67 50.1575 173.869C49.8235 174.062 49.5569 174.326 49.3577 174.66C49.1643 174.988 49.0237 175.354 48.9358 175.759C48.8538 176.157 48.8127 176.564 48.8127 176.98V177.35C48.8127 177.766 48.8538 178.176 48.9358 178.58C49.0178 178.984 49.1555 179.351 49.3489 179.679C49.5481 180.007 49.8147 180.271 50.1487 180.47C50.4885 180.663 50.9104 180.76 51.4143 180.76ZM58.6565 168.42V181.92H57.0305V168.42H58.6565ZM58.2698 176.805L57.593 176.778C57.5989 176.128 57.6956 175.527 57.8831 174.977C58.0706 174.42 58.3342 173.937 58.6741 173.526C59.0139 173.116 59.4182 172.8 59.887 172.577C60.3616 172.349 60.886 172.234 61.4602 172.234C61.929 172.234 62.3508 172.299 62.7258 172.428C63.1008 172.551 63.4202 172.75 63.6838 173.025C63.9534 173.301 64.1584 173.658 64.2991 174.098C64.4397 174.531 64.51 175.062 64.51 175.688V181.92H62.8752V175.671C62.8752 175.173 62.802 174.774 62.6555 174.476C62.509 174.171 62.2952 173.951 62.0139 173.816C61.7327 173.676 61.387 173.605 60.9768 173.605C60.5725 173.605 60.2034 173.69 59.8694 173.86C59.5413 174.03 59.2571 174.265 59.0168 174.563C58.7825 174.862 58.5979 175.205 58.4631 175.592C58.3342 175.973 58.2698 176.377 58.2698 176.805ZM70.8909 182.096C70.2288 182.096 69.6282 181.984 69.0891 181.762C68.5559 181.533 68.0959 181.214 67.7092 180.804C67.3284 180.394 67.0354 179.907 66.8303 179.345C66.6252 178.782 66.5227 178.167 66.5227 177.499V177.13C66.5227 176.356 66.637 175.668 66.8655 175.064C67.094 174.455 67.4045 173.939 67.7971 173.518C68.1897 173.096 68.635 172.776 69.1331 172.56C69.6311 172.343 70.1467 172.234 70.6799 172.234C71.3596 172.234 71.9456 172.352 72.4377 172.586C72.9358 172.82 73.343 173.148 73.6594 173.57C73.9758 173.986 74.2102 174.479 74.3625 175.047C74.5149 175.609 74.5911 176.225 74.5911 176.893V177.622H67.4895V176.295H72.9651V176.172C72.9417 175.75 72.8538 175.34 72.7014 174.941C72.5549 174.543 72.3206 174.215 71.9983 173.957C71.676 173.699 71.2366 173.57 70.6799 173.57C70.3108 173.57 69.9709 173.649 69.6604 173.808C69.3499 173.96 69.0833 174.188 68.8606 174.493C68.6379 174.798 68.4651 175.17 68.342 175.609C68.219 176.049 68.1575 176.556 68.1575 177.13V177.499C68.1575 177.95 68.219 178.375 68.342 178.773C68.4709 179.166 68.6555 179.512 68.8958 179.811C69.1418 180.109 69.4377 180.344 69.7834 180.514C70.135 180.684 70.5334 180.769 70.9788 180.769C71.553 180.769 72.0393 180.651 72.4377 180.417C72.8362 180.183 73.1848 179.869 73.4836 179.477L74.468 180.259C74.2629 180.569 74.0022 180.865 73.6858 181.146C73.3694 181.428 72.9797 181.656 72.5168 181.832C72.0598 182.008 71.5178 182.096 70.8909 182.096ZM82.4836 180.074V168.42H84.1184V181.92H82.6243L82.4836 180.074ZM76.0852 177.271V177.086C76.0852 176.359 76.1731 175.7 76.3489 175.108C76.5305 174.511 76.7854 173.998 77.1135 173.57C77.4475 173.143 77.843 172.814 78.3 172.586C78.7629 172.352 79.2786 172.234 79.8469 172.234C80.4446 172.234 80.9661 172.34 81.4114 172.551C81.8625 172.756 82.2434 173.058 82.554 173.456C82.8704 173.849 83.1194 174.323 83.301 174.88C83.4827 175.437 83.6086 176.066 83.679 176.77V177.578C83.6145 178.275 83.4885 178.902 83.301 179.459C83.1194 180.016 82.8704 180.49 82.554 180.883C82.2434 181.275 81.8625 181.577 81.4114 181.788C80.9602 181.993 80.4329 182.096 79.8293 182.096C79.2727 182.096 78.7629 181.976 78.3 181.735C77.843 181.495 77.4475 181.158 77.1135 180.725C76.7854 180.291 76.5305 179.781 76.3489 179.195C76.1731 178.604 76.0852 177.962 76.0852 177.271ZM77.72 177.086V177.271C77.72 177.745 77.7668 178.19 77.8606 178.606C77.9602 179.022 78.1125 179.389 78.3176 179.705C78.5227 180.021 78.7834 180.271 79.0999 180.452C79.4163 180.628 79.7942 180.716 80.2336 180.716C80.7727 180.716 81.2151 180.602 81.5608 180.373C81.9124 180.145 82.1936 179.843 82.4045 179.468C82.6155 179.093 82.7795 178.686 82.8967 178.246V176.128C82.8264 175.806 82.7239 175.495 82.5891 175.196C82.4602 174.892 82.2903 174.622 82.0793 174.388C81.8743 174.147 81.6194 173.957 81.3147 173.816C81.0159 173.676 80.6614 173.605 80.2512 173.605C79.8059 173.605 79.4221 173.699 79.0999 173.887C78.7834 174.068 78.5227 174.32 78.3176 174.643C78.1125 174.959 77.9602 175.328 77.8606 175.75C77.7668 176.166 77.72 176.611 77.72 177.086Z" fill="#787878"/>
<g clip-path="url(#clip2_1_502)">
<rect x="15.01" y="189.17" width="406.8" height="16" rx="4" fill="#151515"/>
<rect x="15.01" y="189.17" width="292.89" height="16" fill="#FF7657"/>
</g>
<defs>
<clipPath id="clip0_1_502">
<rect x="15.01" y="62.6699" width="494.16" height="16" rx="4" fill="white"/>
</clipPath>
<clipPath id="clip1_1_502">
<rect x="15.01" y="125.92" width="450.48" height="16" rx="4" fill="white"/>
</clipPath>
<clipPath id="clip2_1_502">
<rect x="15.01" y="189.17" width="406.8" height="16" rx="4" fill="white"/>
</clipPath>
</defs>
</svg>
