<svg width="42" height="56" viewBox="0 0 42 56" fill="none" xmlns="http://www.w3.org/2000/svg">
<mask id="path-1-inside-1_1_1168" fill="white">
<path d="M0.000183105 4.89014C0.000183105 2.681 1.79104 0.890137 4.00018 0.890137H42.0002V55.8901H4.00018C1.79104 55.8901 0.000183105 54.0993 0.000183105 51.8901V4.89014Z"/>
</mask>
<path d="M0.000183105 4.89014C0.000183105 2.681 1.79104 0.890137 4.00018 0.890137H42.0002V55.8901H4.00018C1.79104 55.8901 0.000183105 54.0993 0.000183105 51.8901V4.89014Z" fill="#151515"/>
<path d="M42.0002 0.890137H43.0002V-0.109863H42.0002V0.890137ZM42.0002 55.8901V56.8901H43.0002V55.8901H42.0002ZM4.00018 0.890137V1.89014H42.0002V0.890137V-0.109863H4.00018V0.890137ZM42.0002 0.890137H41.0002V55.8901H42.0002H43.0002V0.890137H42.0002ZM42.0002 55.8901V54.8901H4.00018V55.8901V56.8901H42.0002V55.8901ZM0.000183105 51.8901H1.00018V4.89014H0.000183105H-0.999817V51.8901H0.000183105ZM4.00018 55.8901V54.8901C2.34333 54.8901 1.00018 53.547 1.00018 51.8901H0.000183105H-0.999817C-0.999817 54.6516 1.23876 56.8901 4.00018 56.8901V55.8901ZM4.00018 0.890137V-0.109863C1.23876 -0.109863 -0.999817 2.12871 -0.999817 4.89014H0.000183105H1.00018C1.00018 3.23328 2.34333 1.89014 4.00018 1.89014V0.890137Z" fill="#151515" mask="url(#path-1-inside-1_1_1168)"/>
<path d="M27.8573 33.8185V26.9614C27.6669 27.1756 27.4615 27.3721 27.2413 27.5506C25.646 28.7768 24.3782 29.7828 23.4377 30.5685C23.1341 30.8245 22.8871 31.0239 22.6966 31.1667C22.5061 31.3096 22.2487 31.4539 21.9243 31.5997C21.5999 31.7456 21.2948 31.8185 21.0091 31.8185H21.0002H20.9913C20.7055 31.8185 20.4005 31.7456 20.0761 31.5997C19.7517 31.4539 19.4942 31.3096 19.3038 31.1667C19.1133 31.0239 18.8663 30.8245 18.5627 30.5685C17.6222 29.7828 16.3543 28.7768 14.7591 27.5506C14.5389 27.3721 14.3335 27.1756 14.143 26.9614V33.8185C14.143 33.8959 14.1713 33.9628 14.2279 34.0194C14.2844 34.0759 14.3514 34.1042 14.4288 34.1042H27.5716C27.649 34.1042 27.716 34.0759 27.7725 34.0194C27.8291 33.9628 27.8573 33.8959 27.8573 33.8185ZM27.8573 24.4346C27.8573 24.4227 27.8573 24.3899 27.8573 24.3364C27.8573 24.2828 27.8573 24.2426 27.8573 24.2158C27.8573 24.189 27.8558 24.1503 27.8529 24.0997C27.8499 24.0492 27.841 24.012 27.8261 23.9881C27.8112 23.9643 27.7948 23.9375 27.777 23.9078C27.7591 23.878 27.7323 23.8557 27.6966 23.8408C27.6609 23.8259 27.6192 23.8185 27.5716 23.8185H14.4288C14.3514 23.8185 14.2844 23.8468 14.2279 23.9033C14.1713 23.9599 14.143 24.0268 14.143 24.1042C14.143 25.1042 14.5805 25.9495 15.4555 26.6399C16.6044 27.5447 17.7978 28.4881 19.0359 29.4703C19.0716 29.5 19.1758 29.5878 19.3484 29.7337C19.521 29.8795 19.6579 29.9911 19.7591 30.0685C19.8603 30.1459 19.9927 30.2396 20.1564 30.3497C20.3201 30.4599 20.4704 30.5417 20.6073 30.5953C20.7442 30.6489 20.8722 30.6756 20.9913 30.6756H21.0002H21.0091C21.1282 30.6756 21.2561 30.6489 21.393 30.5953C21.5299 30.5417 21.6802 30.4599 21.8439 30.3497C22.0076 30.2396 22.1401 30.1459 22.2413 30.0685C22.3424 29.9911 22.4794 29.8795 22.652 29.7337C22.8246 29.5878 22.9288 29.5 22.9645 29.4703C24.2026 28.4881 25.396 27.5447 26.5448 26.6399C26.8663 26.384 27.1654 26.0402 27.4421 25.6087C27.7189 25.1771 27.8573 24.7858 27.8573 24.4346ZM29.0002 24.1042V33.8185C29.0002 34.2114 28.8603 34.5477 28.5805 34.8274C28.3008 35.1072 27.9645 35.2471 27.5716 35.2471H14.4288C14.0359 35.2471 13.6996 35.1072 13.4198 34.8274C13.1401 34.5477 13.0002 34.2114 13.0002 33.8185V24.1042C13.0002 23.7114 13.1401 23.375 13.4198 23.0953C13.6996 22.8155 14.0359 22.6756 14.4288 22.6756H27.5716C27.9645 22.6756 28.3008 22.8155 28.5805 23.0953C28.8603 23.375 29.0002 23.7114 29.0002 24.1042Z" fill="#FF7657"/>
</svg>
