<svg width="40" height="56" viewBox="0 0 40 56" fill="none" xmlns="http://www.w3.org/2000/svg">
<mask id="path-1-inside-1_1_1155" fill="white">
<path d="M0.000183105 4.89014C0.000183105 2.681 1.79104 0.890137 4.00018 0.890137H39.7202V55.8901H4.00019C1.79105 55.8901 0.000183105 54.0993 0.000183105 51.8901V4.89014Z"/>
</mask>
<path d="M0.000183105 4.89014C0.000183105 2.681 1.79104 0.890137 4.00018 0.890137H39.7202V55.8901H4.00019C1.79105 55.8901 0.000183105 54.0993 0.000183105 51.8901V4.89014Z" fill="#151515"/>
<path d="M39.7202 0.890137H40.7202V-0.109863H39.7202V0.890137ZM39.7202 55.8901V56.8901H40.7202V55.8901H39.7202ZM4.00018 0.890137V1.89014H39.7202V0.890137V-0.109863H4.00018V0.890137ZM39.7202 0.890137H38.7202V55.8901H39.7202H40.7202V0.890137H39.7202ZM39.7202 55.8901V54.8901H4.00019V55.8901V56.8901H39.7202V55.8901ZM0.000183105 51.8901H1.00018V4.89014H0.000183105H-0.999817V51.8901H0.000183105ZM4.00019 55.8901V54.8901C2.34333 54.8901 1.00018 53.547 1.00018 51.8901H0.000183105H-0.999817C-0.999817 54.6516 1.23876 56.8901 4.00019 56.8901V55.8901ZM4.00018 0.890137V-0.109863C1.23876 -0.109863 -0.999817 2.12871 -0.999817 4.89014H0.000183105H1.00018C1.00018 3.23328 2.34333 1.89014 4.00018 1.89014V0.890137Z" fill="#151515" mask="url(#path-1-inside-1_1_1155)"/>
<path d="M23.7263 27.3901C24.006 27.4735 24.2724 27.5866 24.5254 27.7294C24.7783 27.8723 25.0432 28.0895 25.32 28.3812C25.5968 28.6729 25.8334 29.0166 26.0298 29.4125C26.2263 29.8083 26.39 30.3202 26.5209 30.9482C26.6519 31.5761 26.7173 32.28 26.7173 33.0598C26.7173 33.9764 26.4197 34.7607 25.8245 35.4125C25.2292 36.0642 24.512 36.3901 23.6727 36.3901H16.0477C15.2084 36.3901 14.4911 36.0642 13.8959 35.4125C13.3007 34.7607 13.0031 33.9764 13.0031 33.0598C13.0031 32.28 13.0685 31.5761 13.1995 30.9482C13.3304 30.3202 13.4941 29.8083 13.6906 29.4125C13.887 29.0166 14.1236 28.6729 14.4004 28.3812C14.6772 28.0895 14.942 27.8723 15.195 27.7294C15.448 27.5866 15.7144 27.4735 15.9941 27.3901C15.5239 26.6461 15.2888 25.8366 15.2888 24.9616C15.2888 24.3425 15.4093 23.7517 15.6504 23.1892C15.8914 22.6267 16.2173 22.1401 16.6281 21.7294C17.0388 21.3187 17.5254 20.9928 18.0879 20.7517C18.6504 20.5107 19.2411 20.3901 19.8602 20.3901C20.4792 20.3901 21.07 20.5107 21.6325 20.7517C22.195 20.9928 22.6816 21.3187 23.0923 21.7294C23.5031 22.1401 23.8289 22.6267 24.07 23.1892C24.3111 23.7517 24.4316 24.3425 24.4316 24.9616C24.4316 25.8366 24.1965 26.6461 23.7263 27.3901ZM22.2843 22.5375C22.2843 22.5375 22.1169 22.37 21.7821 22.0352C21.4472 21.7004 20.8066 21.533 19.8602 21.533C18.9138 21.533 18.1057 21.8678 17.4361 22.5375C16.7664 23.2071 16.4316 24.0151 16.4316 24.9616C16.4316 25.908 16.7664 26.716 17.4361 27.3857C18.1057 28.0553 18.9138 28.3901 19.8602 28.3901C20.8066 28.3901 21.6147 28.0553 22.2843 27.3857C22.9539 26.716 23.2888 25.908 23.2888 24.9616C23.2888 24.0151 22.9539 23.2071 22.2843 22.5375ZM23.6727 35.2473C24.1965 35.2473 24.6444 35.0345 25.0164 34.6089C25.3885 34.1833 25.5745 33.6669 25.5745 33.0598C25.5745 31.6372 25.3408 30.5151 24.8736 29.6937C24.4063 28.8723 23.7352 28.4407 22.8602 28.3991C21.9971 29.155 20.9971 29.533 19.8602 29.533C18.7233 29.533 17.7233 29.155 16.8602 28.3991C15.9852 28.4407 15.3141 28.8723 14.8468 29.6937C14.3795 30.5151 14.1459 31.6372 14.1459 33.0598C14.1459 33.6669 14.3319 34.1833 14.7039 34.6089C15.076 35.0345 15.5239 35.2473 16.0477 35.2473H23.6727Z" fill="#FF7657"/>
</svg>
