<svg width="60" height="61" viewBox="0 0 60 61" fill="none" xmlns="http://www.w3.org/2000/svg">
<rect y="0.679932" width="60" height="60" rx="30" fill="#F8615A"/>
<path d="M43.5 22.4835V38.8763C43.5 39.2982 43.3041 39.5945 42.9124 39.7653C42.7818 39.8155 42.6562 39.8406 42.5357 39.8406C42.2645 39.8406 42.0385 39.7452 41.8577 39.5543L35.7857 33.4824V35.9835C35.7857 37.1788 35.3613 38.2008 34.5126 39.0496C33.6638 39.8984 32.6417 40.3228 31.4464 40.3228H20.8393C19.644 40.3228 18.6219 39.8984 17.7732 39.0496C16.9244 38.2008 16.5 37.1788 16.5 35.9835V25.3763C16.5 24.181 16.9244 23.159 17.7732 22.3102C18.6219 21.4614 19.644 21.037 20.8393 21.037H31.4464C32.6417 21.037 33.6638 21.4614 34.5126 22.3102C35.3613 23.159 35.7857 24.181 35.7857 25.3763V27.8624L41.8577 21.8055C42.0385 21.6146 42.2645 21.5192 42.5357 21.5192C42.6562 21.5192 42.7818 21.5443 42.9124 21.5945C43.3041 21.7653 43.5 22.0616 43.5 22.4835Z" fill="white"/>
</svg>
