<svg width="60" height="61" viewBox="0 0 60 61" fill="none" xmlns="http://www.w3.org/2000/svg">
<rect y="0.679932" width="60" height="60" rx="30" fill="#F8615A"/>
<path d="M42.159 24.3819C42.5608 24.9545 42.6512 25.6023 42.4302 26.3256L38.2868 39.9762C38.096 40.6191 37.7118 41.159 37.1342 41.5959C36.5566 42.0329 35.9414 42.2513 35.2885 42.2513H21.3817C20.6083 42.2513 19.8624 41.9826 19.1443 41.4453C18.4261 40.9079 17.9263 40.2474 17.6451 39.464C17.404 38.791 17.394 38.1531 17.615 37.5505C17.615 37.5103 17.63 37.3747 17.6602 37.1436C17.6903 36.9126 17.7104 36.7268 17.7204 36.5862C17.7305 36.5058 17.7154 36.3978 17.6752 36.2622C17.635 36.1266 17.62 36.0287 17.63 35.9684C17.6501 35.8579 17.6903 35.7525 17.7506 35.652C17.8108 35.5516 17.8937 35.4335 17.9992 35.2979C18.1046 35.1623 18.1875 35.0443 18.2478 34.9439C18.4788 34.5622 18.7048 34.1026 18.9258 33.5652C19.1468 33.0279 19.2974 32.5683 19.3778 32.1866C19.4079 32.0862 19.4104 31.9355 19.3853 31.7346C19.3602 31.5337 19.3577 31.3931 19.3778 31.3127C19.4079 31.2022 19.4933 31.0616 19.6339 30.8909C19.7746 30.7201 19.8599 30.6046 19.8901 30.5443C20.101 30.1827 20.3119 29.7207 20.5229 29.1582C20.7338 28.5957 20.8594 28.1436 20.8996 27.8021C20.9096 27.7117 20.897 27.551 20.8619 27.32C20.8267 27.089 20.8292 26.9483 20.8694 26.8981C20.9096 26.7675 21.0201 26.6143 21.2009 26.4386C21.3817 26.2628 21.4922 26.1498 21.5324 26.0996C21.7232 25.8384 21.9367 25.414 22.1727 24.8264C22.4088 24.2388 22.5469 23.7541 22.5871 23.3724C22.5971 23.2921 22.582 23.164 22.5419 22.9882C22.5017 22.8124 22.4916 22.6794 22.5117 22.589C22.5318 22.5086 22.577 22.4182 22.6473 22.3177C22.7176 22.2173 22.808 22.1018 22.9185 21.9712C23.029 21.8406 23.1144 21.7352 23.1747 21.6548C23.255 21.5343 23.3379 21.3811 23.4233 21.1953C23.5086 21.0094 23.584 20.8337 23.6493 20.6679C23.7146 20.5022 23.7949 20.3214 23.8903 20.1255C23.9858 19.9296 24.0837 19.7689 24.1842 19.6434C24.2846 19.5178 24.4177 19.3998 24.5834 19.2893C24.7492 19.1788 24.93 19.121 25.1258 19.116C25.3217 19.111 25.5603 19.1386 25.8415 19.1989L25.8265 19.2441C26.2081 19.1537 26.4643 19.1085 26.5949 19.1085H38.0608C38.8041 19.1085 39.3767 19.3897 39.7785 19.9522C40.1802 20.5147 40.2706 21.1676 40.0497 21.9109L35.9213 35.5616C35.5597 36.7569 35.2006 37.5278 34.844 37.8744C34.4874 38.2209 33.8421 38.3942 32.9079 38.3942H19.8147C19.5435 38.3942 19.3527 38.4695 19.2422 38.6202C19.1317 38.7809 19.1267 38.9969 19.2271 39.2681C19.4682 39.9712 20.1914 40.3228 21.3968 40.3228H35.3036C35.5949 40.3228 35.8761 40.2449 36.1473 40.0892C36.4185 39.9335 36.5943 39.7251 36.6747 39.464L41.1948 24.5929C41.2651 24.3719 41.2902 24.0856 41.2701 23.734C41.6518 23.8847 41.9481 24.1007 42.159 24.3819ZM26.1278 24.4121C26.0876 24.5426 26.0977 24.6556 26.1579 24.7511C26.2182 24.8465 26.3186 24.8942 26.4593 24.8942H35.62C35.7506 24.8942 35.8786 24.8465 36.0042 24.7511C36.1297 24.6556 36.2126 24.5426 36.2528 24.4121L36.5692 23.4478C36.6094 23.3172 36.5993 23.2042 36.5391 23.1088C36.4788 23.0133 36.3783 22.9656 36.2377 22.9656H27.077C26.9464 22.9656 26.8184 23.0133 26.6928 23.1088C26.5672 23.2042 26.4844 23.3172 26.4442 23.4478L26.1278 24.4121ZM24.8772 28.2692C24.8371 28.3998 24.8471 28.5128 24.9074 28.6082C24.9676 28.7036 25.0681 28.7513 25.2087 28.7513H34.3694C34.5 28.7513 34.6281 28.7036 34.7536 28.6082C34.8792 28.5128 34.9621 28.3998 35.0022 28.2692L35.3186 27.3049C35.3588 27.1743 35.3488 27.0613 35.2885 26.9659C35.2282 26.8705 35.1278 26.8228 34.9872 26.8228H25.8265C25.6959 26.8228 25.5678 26.8705 25.4422 26.9659C25.3167 27.0613 25.2338 27.1743 25.1936 27.3049L24.8772 28.2692Z" fill="white"/>
</svg>
