<svg width="60" height="61" viewBox="0 0 60 61" fill="none" xmlns="http://www.w3.org/2000/svg">
<rect y="0.97998" width="60" height="60" rx="30" fill="#F8615A"/>
<path d="M26.1429 29.0514H33.8572V26.1585C33.8572 25.0938 33.4805 24.1847 32.7271 23.4314C31.9738 22.678 31.0647 22.3014 30 22.3014C28.9353 22.3014 28.0262 22.678 27.2729 23.4314C26.5195 24.1847 26.1429 25.0938 26.1429 26.1585V29.0514ZM38.6786 30.4978V39.1764C38.6786 39.5782 38.538 39.9197 38.2567 40.2009C37.9755 40.4822 37.6339 40.6228 37.2322 40.6228H22.7679C22.3661 40.6228 22.0246 40.4822 21.7433 40.2009C21.4621 39.9197 21.3214 39.5782 21.3214 39.1764V30.4978C21.3214 30.096 21.4621 29.7545 21.7433 29.4732C22.0246 29.192 22.3661 29.0514 22.7679 29.0514H23.25V26.1585C23.25 24.3103 23.913 22.7232 25.2389 21.3974C26.5647 20.0715 28.1518 19.4085 30 19.4085C31.8482 19.4085 33.4353 20.0715 34.7612 21.3974C36.0871 22.7232 36.75 24.3103 36.75 26.1585V29.0514H37.2322C37.6339 29.0514 37.9755 29.192 38.2567 29.4732C38.538 29.7545 38.6786 30.096 38.6786 30.4978Z" fill="white"/>
</svg>
