<svg width="93" height="27" viewBox="0 0 93 27" fill="none" xmlns="http://www.w3.org/2000/svg">
<path d="M7.7191 19.48L5.2371 14.975H4.5401V19.48H1.6331V7.54598H6.5121C7.45277 7.54598 8.25177 7.71031 8.9091 8.03898C9.57777 8.36765 10.0764 8.82098 10.4051 9.39898C10.7338 9.96565 10.8981 10.6003 10.8981 11.303C10.8981 12.0963 10.6714 12.8046 10.2181 13.428C9.7761 14.0513 9.11877 14.4933 8.2461 14.754L11.0001 19.48H7.7191ZM4.5401 12.918H6.3421C6.87477 12.918 7.27144 12.7876 7.5321 12.527C7.8041 12.2663 7.9401 11.898 7.9401 11.422C7.9401 10.9686 7.8041 10.6116 7.5321 10.351C7.27144 10.0903 6.87477 9.95998 6.3421 9.95998H4.5401V12.918ZM21.6649 14.584C21.6649 14.856 21.6479 15.1393 21.6139 15.434H15.0349C15.0803 16.0233 15.2673 16.4766 15.5959 16.794C15.9359 17.1 16.3496 17.253 16.8369 17.253C17.5623 17.253 18.0666 16.947 18.3499 16.335H21.4439C21.2853 16.9583 20.9963 17.5193 20.5769 18.018C20.1689 18.5166 19.6533 18.9076 19.0299 19.191C18.4066 19.4743 17.7096 19.616 16.9389 19.616C16.0096 19.616 15.1823 19.4176 14.4569 19.021C13.7316 18.6243 13.1649 18.0576 12.7569 17.321C12.3489 16.5843 12.1449 15.723 12.1449 14.737C12.1449 13.751 12.3433 12.8896 12.7399 12.153C13.1479 11.4163 13.7146 10.8496 14.4399 10.453C15.1653 10.0563 15.9983 9.85798 16.9389 9.85798C17.8569 9.85798 18.6729 10.0506 19.3869 10.436C20.1009 10.8213 20.6563 11.371 21.0529 12.085C21.4609 12.799 21.6649 13.632 21.6649 14.584ZM18.6899 13.819C18.6899 13.3203 18.5199 12.9236 18.1799 12.629C17.8399 12.3343 17.4149 12.187 16.9049 12.187C16.4176 12.187 16.0039 12.3286 15.6639 12.612C15.3353 12.8953 15.1313 13.2976 15.0519 13.819H18.6899ZM22.6205 14.72C22.6205 13.7453 22.8019 12.8896 23.1645 12.153C23.5385 11.4163 24.0429 10.8496 24.6775 10.453C25.3122 10.0563 26.0205 9.85798 26.8025 9.85798C27.4712 9.85798 28.0549 9.99398 28.5535 10.266C29.0635 10.538 29.4545 10.895 29.7265 11.337V9.99398H32.6335V19.48H29.7265V18.137C29.4432 18.579 29.0465 18.936 28.5365 19.208C28.0379 19.48 27.4542 19.616 26.7855 19.616C26.0149 19.616 25.3122 19.4176 24.6775 19.021C24.0429 18.613 23.5385 18.0406 23.1645 17.304C22.8019 16.556 22.6205 15.6946 22.6205 14.72ZM29.7265 14.737C29.7265 14.0116 29.5225 13.4393 29.1145 13.02C28.7179 12.6006 28.2305 12.391 27.6525 12.391C27.0745 12.391 26.5815 12.6006 26.1735 13.02C25.7769 13.428 25.5785 13.9946 25.5785 14.72C25.5785 15.4453 25.7769 16.0233 26.1735 16.454C26.5815 16.8733 27.0745 17.083 27.6525 17.083C28.2305 17.083 28.7179 16.8733 29.1145 16.454C29.5225 16.0346 29.7265 15.4623 29.7265 14.737ZM34.1586 14.72C34.1586 13.7453 34.34 12.8896 34.7026 12.153C35.0766 11.4163 35.581 10.8496 36.2156 10.453C36.8503 10.0563 37.5586 9.85798 38.3406 9.85798C38.964 9.85798 39.5306 9.98831 40.0406 10.249C40.562 10.5096 40.97 10.861 41.2646 11.303V6.89998H44.1716V19.48H41.2646V18.12C40.9926 18.5733 40.6016 18.936 40.0916 19.208C39.593 19.48 39.0093 19.616 38.3406 19.616C37.5586 19.616 36.8503 19.4176 36.2156 19.021C35.581 18.613 35.0766 18.0406 34.7026 17.304C34.34 16.556 34.1586 15.6946 34.1586 14.72ZM41.2646 14.737C41.2646 14.0116 41.0606 13.4393 40.6526 13.02C40.256 12.6006 39.7686 12.391 39.1906 12.391C38.6126 12.391 38.1196 12.6006 37.7116 13.02C37.315 13.428 37.1166 13.9946 37.1166 14.72C37.1166 15.4453 37.315 16.0233 37.7116 16.454C38.1196 16.8733 38.6126 17.083 39.1906 17.083C39.7686 17.083 40.256 16.8733 40.6526 16.454C41.0606 16.0346 41.2646 15.4623 41.2646 14.737ZM63.3922 7.54598V19.48H60.4852V12.323L57.8162 19.48H55.4702L52.7842 12.306V19.48H49.8772V7.54598H53.3112L56.6602 15.808L59.9752 7.54598H63.3922ZM69.8007 19.616C68.8714 19.616 68.0327 19.4176 67.2847 19.021C66.548 18.6243 65.9644 18.0576 65.5337 17.321C65.1144 16.5843 64.9047 15.723 64.9047 14.737C64.9047 13.7623 65.12 12.9066 65.5507 12.17C65.9814 11.422 66.5707 10.8496 67.3187 10.453C68.0667 10.0563 68.9054 9.85798 69.8347 9.85798C70.764 9.85798 71.6027 10.0563 72.3507 10.453C73.0987 10.8496 73.688 11.422 74.1187 12.17C74.5494 12.9066 74.7647 13.7623 74.7647 14.737C74.7647 15.7116 74.5437 16.573 74.1017 17.321C73.671 18.0576 73.076 18.6243 72.3167 19.021C71.5687 19.4176 70.73 19.616 69.8007 19.616ZM69.8007 17.1C70.356 17.1 70.8264 16.896 71.2117 16.488C71.6084 16.08 71.8067 15.4963 71.8067 14.737C71.8067 13.9776 71.614 13.394 71.2287 12.986C70.8547 12.578 70.39 12.374 69.8347 12.374C69.268 12.374 68.7977 12.578 68.4237 12.986C68.0497 13.3826 67.8627 13.9663 67.8627 14.737C67.8627 15.4963 68.044 16.08 68.4067 16.488C68.7807 16.896 69.2454 17.1 69.8007 17.1ZM79.2139 11.575C79.5539 11.0536 79.9789 10.6456 80.4889 10.351C80.9989 10.045 81.5656 9.89198 82.1889 9.89198V12.969H81.3899C80.6646 12.969 80.1206 13.1276 79.7579 13.445C79.3953 13.751 79.2139 14.295 79.2139 15.077V19.48H76.3069V9.99398H79.2139V11.575ZM92.5204 14.584C92.5204 14.856 92.5034 15.1393 92.4694 15.434H85.8904C85.9357 16.0233 86.1227 16.4766 86.4514 16.794C86.7914 17.1 87.2051 17.253 87.6924 17.253C88.4177 17.253 88.9221 16.947 89.2054 16.335H92.2994C92.1407 16.9583 91.8517 17.5193 91.4324 18.018C91.0244 18.5166 90.5087 18.9076 89.8854 19.191C89.2621 19.4743 88.5651 19.616 87.7944 19.616C86.8651 19.616 86.0377 19.4176 85.3124 19.021C84.5871 18.6243 84.0204 18.0576 83.6124 17.321C83.2044 16.5843 83.0004 15.723 83.0004 14.737C83.0004 13.751 83.1987 12.8896 83.5954 12.153C84.0034 11.4163 84.5701 10.8496 85.2954 10.453C86.0207 10.0563 86.8537 9.85798 87.7944 9.85798C88.7124 9.85798 89.5284 10.0506 90.2424 10.436C90.9564 10.8213 91.5117 11.371 91.9084 12.085C92.3164 12.799 92.5204 13.632 92.5204 14.584ZM89.5454 13.819C89.5454 13.3203 89.3754 12.9236 89.0354 12.629C88.6954 12.3343 88.2704 12.187 87.7604 12.187C87.2731 12.187 86.8594 12.3286 86.5194 12.612C86.1907 12.8953 85.9867 13.2976 85.9074 13.819H89.5454Z" fill="#FF7657"/>
</svg>
