<svg width="60" height="61" viewBox="0 0 60 61" fill="none" xmlns="http://www.w3.org/2000/svg">
<rect y="0.97998" width="60" height="60" rx="30" fill="#F8615A"/>
<path d="M42.5357 27.2283C42.5357 27.4493 42.4051 27.6904 42.144 27.9515L36.6747 33.2852L37.9704 40.8187C37.9805 40.889 37.9855 40.9895 37.9855 41.1201C37.9855 41.331 37.9328 41.5093 37.8273 41.6549C37.7218 41.8006 37.5686 41.8734 37.3677 41.8734C37.1769 41.8734 36.976 41.8131 36.7651 41.6926L30 38.1368L23.2349 41.6926C23.014 41.8131 22.8131 41.8734 22.6323 41.8734C22.4213 41.8734 22.2631 41.8006 22.1576 41.6549C22.0522 41.5093 21.9994 41.331 21.9994 41.1201C21.9994 41.0598 22.0095 40.9594 22.0296 40.8187L23.3253 33.2852L17.841 27.9515C17.5898 27.6803 17.4643 27.4393 17.4643 27.2283C17.4643 26.8567 17.7455 26.6256 18.308 26.5352L25.8717 25.4354L29.2617 18.5799C29.4526 18.1681 29.6987 17.9621 30 17.9621C30.3013 17.9621 30.5474 18.1681 30.7383 18.5799L34.1283 25.4354L41.692 26.5352C42.2545 26.6256 42.5357 26.8567 42.5357 27.2283Z" fill="white"/>
</svg>
