<svg width="21" height="23" viewBox="0 0 21 23" fill="none" xmlns="http://www.w3.org/2000/svg">
<path d="M9.42927 12.2757V16.99C9.42927 17.6448 9.20011 18.2013 8.74177 18.6597C8.28344 19.118 7.72689 19.3472 7.07213 19.3472H2.35784C1.70308 19.3472 1.14654 19.118 0.688202 18.6597C0.229869 18.2013 0.000701904 17.6448 0.000701904 16.99V8.34717C0.000701904 7.49598 0.166439 6.68366 0.497912 5.91023C0.829385 5.13679 1.27749 4.4677 1.84222 3.90297C2.40695 3.33824 3.07604 2.89014 3.84947 2.55866C4.62291 2.22719 5.43523 2.06145 6.28642 2.06145H7.07213C7.28493 2.06145 7.46908 2.13921 7.62459 2.29471C7.78009 2.45022 7.85784 2.63437 7.85784 2.84717V4.4186C7.85784 4.6314 7.78009 4.81555 7.62459 4.97105C7.46908 5.12656 7.28493 5.20431 7.07213 5.20431H6.28642C5.41886 5.20431 4.67816 5.51123 4.06432 6.12507C3.45048 6.73891 3.14356 7.47961 3.14356 8.34717V8.74003C3.14356 9.06741 3.25814 9.34568 3.48731 9.57485C3.71648 9.80401 3.99475 9.9186 4.32213 9.9186H7.07213C7.72689 9.9186 8.28344 10.1478 8.74177 10.6061C9.20011 11.0644 9.42927 11.621 9.42927 12.2757ZM20.4293 12.2757V16.99C20.4293 17.6448 20.2001 18.2013 19.7418 18.6597C19.2834 19.118 18.7269 19.3472 18.0721 19.3472H13.3578C12.7031 19.3472 12.1465 19.118 11.6882 18.6597C11.2299 18.2013 11.0007 17.6448 11.0007 16.99V8.34717C11.0007 7.49598 11.1664 6.68366 11.4979 5.91023C11.8294 5.13679 12.2775 4.4677 12.8422 3.90297C13.407 3.33824 14.076 2.89014 14.8495 2.55866C15.6229 2.22719 16.4352 2.06145 17.2864 2.06145H18.0721C18.2849 2.06145 18.4691 2.13921 18.6246 2.29471C18.7801 2.45022 18.8578 2.63437 18.8578 2.84717V4.4186C18.8578 4.6314 18.7801 4.81555 18.6246 4.97105C18.4691 5.12656 18.2849 5.20431 18.0721 5.20431H17.2864C16.4189 5.20431 15.6782 5.51123 15.0643 6.12507C14.4505 6.73891 14.1436 7.47961 14.1436 8.34717V8.74003C14.1436 9.06741 14.2581 9.34568 14.4873 9.57485C14.7165 9.80401 14.9947 9.9186 15.3221 9.9186H18.0721C18.7269 9.9186 19.2834 10.1478 19.7418 10.6061C20.2001 11.0644 20.4293 11.621 20.4293 12.2757Z" fill="#FF7657"/>
</svg>
