<svg width="21" height="23" viewBox="0 0 21 23" fill="none" xmlns="http://www.w3.org/2000/svg">
<path d="M9.41929 4.4186V13.0615C9.41929 13.9126 9.25356 14.725 8.92208 15.4984C8.59061 16.2718 8.14251 16.9409 7.57778 17.5057C7.01304 18.0704 6.34396 18.5185 5.57052 18.85C4.79708 19.1814 3.98477 19.3472 3.13358 19.3472H2.34787C2.13507 19.3472 1.95092 19.2694 1.79541 19.1139C1.6399 18.9584 1.56215 18.7743 1.56215 18.5615V16.99C1.56215 16.7772 1.6399 16.5931 1.79541 16.4376C1.95092 16.2821 2.13507 16.2043 2.34787 16.2043H3.13358C4.00114 16.2043 4.74184 15.8974 5.35568 15.2836C5.96952 14.6697 6.27644 13.929 6.27644 13.0615V12.6686C6.27644 12.3412 6.16185 12.0629 5.93269 11.8338C5.70352 11.6046 5.42525 11.49 5.09787 11.49H2.34787C1.6931 11.49 1.13656 11.2609 0.678223 10.8025C0.219889 10.3442 -0.00927734 9.78765 -0.00927734 9.13288V4.4186C-0.00927734 3.76384 0.219889 3.20729 0.678223 2.74895C1.13656 2.29062 1.6931 2.06145 2.34787 2.06145H7.06215C7.71691 2.06145 8.27346 2.29062 8.73179 2.74895C9.19013 3.20729 9.41929 3.76384 9.41929 4.4186ZM20.4193 4.4186V13.0615C20.4193 13.9126 20.2536 14.725 19.9221 15.4984C19.5906 16.2718 19.1425 16.9409 18.5778 17.5057C18.013 18.0704 17.344 18.5185 16.5705 18.85C15.7971 19.1814 14.9848 19.3472 14.1336 19.3472H13.3479C13.1351 19.3472 12.9509 19.2694 12.7954 19.1139C12.6399 18.9584 12.5622 18.7743 12.5622 18.5615V16.99C12.5622 16.7772 12.6399 16.5931 12.7954 16.4376C12.9509 16.2821 13.1351 16.2043 13.3479 16.2043H14.1336C15.0011 16.2043 15.7418 15.8974 16.3557 15.2836C16.9695 14.6697 17.2764 13.929 17.2764 13.0615V12.6686C17.2764 12.3412 17.1619 12.0629 16.9327 11.8338C16.7035 11.6046 16.4252 11.49 16.0979 11.49H13.3479C12.6931 11.49 12.1366 11.2609 11.6782 10.8025C11.2199 10.3442 10.9907 9.78765 10.9907 9.13288V4.4186C10.9907 3.76384 11.2199 3.20729 11.6782 2.74895C12.1366 2.29062 12.6931 2.06145 13.3479 2.06145H18.0622C18.7169 2.06145 19.2735 2.29062 19.7318 2.74895C20.1901 3.20729 20.4193 3.76384 20.4193 4.4186Z" fill="#FF7657"/>
</svg>
