<svg width="248" height="25" viewBox="0 0 248 25" fill="none" xmlns="http://www.w3.org/2000/svg">
<path d="M19.1886 10.7672C19.1886 10.8982 19.1112 11.041 18.9565 11.1958L15.7154 14.3565L16.4832 18.8208C16.4892 18.8625 16.4922 18.922 16.4922 18.9994C16.4922 19.1244 16.4609 19.23 16.3984 19.3163C16.3359 19.4026 16.2451 19.4458 16.1261 19.4458C16.013 19.4458 15.894 19.4101 15.769 19.3387L11.76 17.2315L7.75109 19.3387C7.62014 19.4101 7.50109 19.4458 7.39395 19.4458C7.26895 19.4458 7.1752 19.4026 7.1127 19.3163C7.0502 19.23 7.01895 19.1244 7.01895 18.9994C7.01895 18.9637 7.0249 18.9041 7.03681 18.8208L7.80467 14.3565L4.55467 11.1958C4.40586 11.0351 4.33145 10.8922 4.33145 10.7672C4.33145 10.547 4.49812 10.4101 4.83145 10.3565L9.31359 9.70473L11.3225 5.64223C11.4356 5.39818 11.5815 5.27616 11.76 5.27616C11.9386 5.27616 12.0844 5.39818 12.1975 5.64223L14.2065 9.70473L18.6886 10.3565C19.0219 10.4101 19.1886 10.547 19.1886 10.7672Z" fill="#FBAA33"/>
<path d="M46.2386 10.7633C46.2386 10.8942 46.1613 11.0369 46.0066 11.1916L42.7677 14.3502L43.5351 18.8115C43.541 18.8531 43.544 18.9126 43.544 18.9899C43.544 19.1148 43.5128 19.2204 43.4503 19.3067C43.3878 19.3929 43.2971 19.436 43.1782 19.436C43.0651 19.436 42.9462 19.4003 42.8213 19.329L38.815 17.2232L34.8088 19.329C34.6779 19.4003 34.559 19.436 34.4519 19.436C34.327 19.436 34.2333 19.3929 34.1708 19.3067C34.1084 19.2204 34.0771 19.1148 34.0771 18.9899C34.0771 18.9542 34.0831 18.8947 34.095 18.8115L34.8623 14.3502L31.6145 11.1916C31.4658 11.031 31.3914 10.8882 31.3914 10.7633C31.3914 10.5432 31.558 10.4064 31.8911 10.3529L36.3702 9.70152L38.3778 5.64175C38.4908 5.39787 38.6366 5.27593 38.815 5.27593C38.9935 5.27593 39.1392 5.39787 39.2522 5.64175L41.2598 9.70152L45.7389 10.3529C46.072 10.4064 46.2386 10.5432 46.2386 10.7633Z" fill="#FBAA33"/>
<path d="M73.2986 10.7672C73.2986 10.8982 73.2212 11.041 73.0665 11.1958L69.8254 14.3565L70.5932 18.8208C70.5992 18.8625 70.6022 18.922 70.6022 18.9994C70.6022 19.1244 70.5709 19.23 70.5084 19.3163C70.4459 19.4026 70.3551 19.4458 70.2361 19.4458C70.123 19.4458 70.004 19.4101 69.879 19.3387L65.87 17.2315L61.8611 19.3387C61.7301 19.4101 61.6111 19.4458 61.504 19.4458C61.379 19.4458 61.2852 19.4026 61.2227 19.3163C61.1602 19.23 61.129 19.1244 61.129 18.9994C61.129 18.9637 61.1349 18.9041 61.1468 18.8208L61.9147 14.3565L58.6647 11.1958C58.5159 11.0351 58.4415 10.8922 58.4415 10.7672C58.4415 10.547 58.6081 10.4101 58.9415 10.3565L63.4236 9.70473L65.4325 5.64223C65.5456 5.39818 65.6915 5.27616 65.87 5.27616C66.0486 5.27616 66.1944 5.39818 66.3075 5.64223L68.3165 9.70473L72.7986 10.3565C73.1319 10.4101 73.2986 10.547 73.2986 10.7672Z" fill="#FBAA33"/>
<path d="M100.359 10.7672C100.359 10.8982 100.281 11.041 100.126 11.1958L96.8854 14.3565L97.6532 18.8208C97.6592 18.8625 97.6622 18.922 97.6622 18.9994C97.6622 19.1244 97.6309 19.23 97.5684 19.3163C97.5059 19.4026 97.4151 19.4458 97.2961 19.4458C97.183 19.4458 97.064 19.4101 96.939 19.3387L92.93 17.2315L88.9211 19.3387C88.7901 19.4101 88.6711 19.4458 88.5639 19.4458C88.4389 19.4458 88.3452 19.4026 88.2827 19.3163C88.2202 19.23 88.1889 19.1244 88.1889 18.9994C88.1889 18.9637 88.1949 18.9041 88.2068 18.8208L88.9747 14.3565L85.7247 11.1958C85.5759 11.0351 85.5014 10.8922 85.5014 10.7672C85.5014 10.547 85.6681 10.4101 86.0014 10.3565L90.4836 9.70473L92.4925 5.64223C92.6056 5.39818 92.7515 5.27616 92.93 5.27616C93.1086 5.27616 93.2544 5.39818 93.3675 5.64223L95.3764 9.70473L99.8586 10.3565C100.192 10.4101 100.359 10.547 100.359 10.7672Z" fill="#FBAA33"/>
<path d="M127.419 10.7672C127.419 10.8982 127.341 11.041 127.186 11.1958L123.945 14.3565L124.713 18.8208C124.719 18.8625 124.722 18.922 124.722 18.9994C124.722 19.1244 124.691 19.23 124.628 19.3163C124.566 19.4026 124.475 19.4458 124.356 19.4458C124.243 19.4458 124.124 19.4101 123.999 19.3387L119.99 17.2315L115.981 19.3387C115.85 19.4101 115.731 19.4458 115.624 19.4458C115.499 19.4458 115.405 19.4026 115.343 19.3163C115.28 19.23 115.249 19.1244 115.249 18.9994C115.249 18.9637 115.255 18.9041 115.267 18.8208L116.035 14.3565L112.785 11.1958C112.636 11.0351 112.561 10.8922 112.561 10.7672C112.561 10.547 112.728 10.4101 113.061 10.3565L117.544 9.70473L119.553 5.64223C119.666 5.39818 119.811 5.27616 119.99 5.27616C120.169 5.27616 120.314 5.39818 120.428 5.64223L122.436 9.70473L126.919 10.3565C127.252 10.4101 127.419 10.547 127.419 10.7672Z" fill="#FBAA33"/>
</svg>
