<svg width="60" height="56" viewBox="0 0 60 56" fill="none" xmlns="http://www.w3.org/2000/svg">
<mask id="path-1-inside-1_1_1226" fill="white">
<path d="M0 0.015625H60V55.0156H0V0.015625Z"/>
</mask>
<path d="M0 0.015625H60V55.0156H0V0.015625Z" fill="#FF7657"/>
<path d="M0 0.015625V-0.984375H-1V0.015625H0ZM60 0.015625H61V-0.984375H60V0.015625ZM60 55.0156V56.0156H61V55.0156H60ZM0 55.0156H-1V56.0156H0V55.0156ZM0 0.015625V1.01562H60V0.015625V-0.984375H0V0.015625ZM60 0.015625H59V55.0156H60H61V0.015625H60ZM60 55.0156V54.0156H0V55.0156V56.0156H60V55.0156ZM0 55.0156H1V0.015625H0H-1V55.0156H0Z" fill="#FF7657" mask="url(#path-1-inside-1_1_1226)"/>
<path d="M31.683 30.2701C31.683 30.2701 31.8787 30.0744 32.2701 29.683C32.6614 29.2917 32.8571 28.5454 32.8571 27.4442C32.8571 26.343 32.4658 25.401 31.683 24.6183C30.9003 23.8356 29.9583 23.4442 28.8571 23.4442C27.7559 23.4442 26.814 23.8356 26.0312 24.6183C25.2485 25.401 24.8571 26.343 24.8571 27.4442C24.8571 28.5454 25.2485 29.4874 26.0312 30.2701C26.814 31.0528 27.7559 31.4442 28.8571 31.4442C29.9583 31.4442 30.9003 31.0528 31.683 30.2701ZM37.4286 34.8728C37.4286 35.1823 37.3155 35.4501 37.0893 35.6763C36.8631 35.9025 36.5952 36.0156 36.2857 36.0156C35.9643 36.0156 35.6964 35.9025 35.4821 35.6763L32.4196 32.6228C31.3541 33.3609 30.1666 33.7299 28.8571 33.7299C28.0059 33.7299 27.1919 33.5647 26.4152 33.2344C25.6384 32.904 24.9687 32.4576 24.4062 31.8951C23.8437 31.3326 23.3973 30.6629 23.0669 29.8862C22.7366 29.1094 22.5714 28.2954 22.5714 27.4442C22.5714 26.593 22.7366 25.779 23.0669 25.0022C23.3973 24.2254 23.8437 23.5558 24.4062 22.9933C24.9687 22.4308 25.6384 21.9844 26.4152 21.654C27.1919 21.3237 28.0059 21.1585 28.8571 21.1585C29.7083 21.1585 30.5223 21.3237 31.2991 21.654C32.0759 21.9844 32.7455 22.4308 33.308 22.9933C33.8705 23.5558 34.3169 24.2254 34.6473 25.0022C34.9777 25.779 35.1428 26.593 35.1428 27.4442C35.1428 28.7537 34.7738 29.9412 34.0357 31.0067L37.0982 34.0692C37.3184 34.2894 37.4286 34.5573 37.4286 34.8728Z" fill="white"/>
</svg>
