<svg width="45" height="45" viewBox="0 0 45 45" fill="none" xmlns="http://www.w3.org/2000/svg">
<rect x="0.5" y="0.5" width="44" height="44" rx="22" fill="white"/>
<rect x="0.5" y="0.5" width="44" height="44" rx="22" stroke="white"/>
<path d="M31.2946 18.0533C30.7961 18.7825 30.1934 19.4037 29.4866 19.9171C29.494 20.0213 29.4978 20.1775 29.4978 20.3859C29.4978 21.3531 29.3564 22.3185 29.0737 23.2821C28.7909 24.2456 28.3612 25.1701 27.7846 26.0555C27.208 26.9409 26.5216 27.7241 25.7254 28.4049C24.9293 29.0857 23.9695 29.6288 22.846 30.0343C21.7225 30.4398 20.5208 30.6426 19.2411 30.6426C17.2247 30.6426 15.3795 30.1031 13.7054 29.0243C13.9658 29.054 14.2559 29.0689 14.5759 29.0689C16.25 29.0689 17.7418 28.5555 19.0513 27.5287C18.2701 27.5139 17.5707 27.2739 16.9531 26.8089C16.3356 26.3438 15.9115 25.7505 15.6808 25.0287C15.9263 25.0659 16.1533 25.0845 16.3616 25.0845C16.6815 25.0845 16.9978 25.0436 17.3103 24.9618C16.4769 24.7906 15.7868 24.3758 15.24 23.7174C14.6931 23.0589 14.4196 22.2944 14.4196 21.4238V21.3792C14.9256 21.6619 15.4687 21.8145 16.0491 21.8368C15.558 21.5094 15.1674 21.0816 14.8772 20.5533C14.587 20.025 14.442 19.4521 14.442 18.8345C14.442 18.1798 14.6057 17.5734 14.933 17.0153C15.8333 18.124 16.9289 19.0113 18.2199 19.6772C19.5108 20.3431 20.8929 20.7133 22.3661 20.7877C22.3065 20.5049 22.2768 20.2296 22.2768 19.9618C22.2768 18.9648 22.6283 18.1147 23.3315 17.4116C24.0346 16.7084 24.8847 16.3569 25.8817 16.3569C26.9234 16.3569 27.8013 16.7363 28.5156 17.4953C29.3266 17.339 30.0893 17.0488 30.8036 16.6247C30.5283 17.4804 30 18.1426 29.2187 18.6113C29.9107 18.5369 30.6027 18.3509 31.2946 18.0533Z" fill="#FF7657"/>
</svg>
