<svg width="45" height="45" viewBox="0 0 45 45" fill="none" xmlns="http://www.w3.org/2000/svg">
<rect x="0.5" y="0.5" width="44" height="44" rx="22" fill="white"/>
<rect x="0.5" y="0.5" width="44" height="44" rx="22" stroke="white"/>
<path d="M25.3571 30.2409C25.0446 28.4478 24.5238 26.5951 23.7946 24.6829H23.7723L23.75 24.6941C23.6309 24.7387 23.471 24.8001 23.2701 24.8782C23.0692 24.9563 22.6934 25.1386 22.1428 25.4251C21.5922 25.7115 21.0826 26.0166 20.6138 26.3403C20.1451 26.6639 19.6577 27.0899 19.1518 27.6182C18.6458 28.1464 18.2626 28.697 18.0022 29.2699L17.8348 29.1472C19.2039 30.2633 20.7589 30.8213 22.5 30.8213C23.4821 30.8213 24.4345 30.6278 25.3571 30.2409ZM23.2924 23.4664C23.1361 23.1018 22.939 22.6888 22.7009 22.2275C20.3869 22.9195 17.8832 23.2655 15.1897 23.2655C15.1823 23.3176 15.1786 23.3957 15.1786 23.4999C15.1786 24.4225 15.3422 25.3023 15.6696 26.1394C15.997 26.9764 16.4583 27.7261 17.0536 28.3883C17.4256 27.7261 17.885 27.1066 18.4319 26.53C18.9788 25.9534 19.5089 25.4902 20.0223 25.1405C20.5357 24.7908 21.0212 24.4894 21.4788 24.2365C21.9364 23.9835 22.3065 23.8049 22.5893 23.7008L23.0022 23.5557C23.032 23.5482 23.0803 23.5352 23.1473 23.5166C23.2143 23.498 23.2626 23.4813 23.2924 23.4664ZM22.0982 21.1003C21.2053 19.5155 20.2976 18.1092 19.375 16.8816C18.3482 17.3652 17.4777 18.0572 16.7634 18.9575C16.0491 19.8577 15.5729 20.8697 15.3348 21.9932C17.5818 21.9932 19.8363 21.6955 22.0982 21.1003ZM29.7321 24.6606C28.1696 24.2141 26.6481 24.1063 25.1674 24.3369C25.8147 26.1152 26.2909 27.86 26.596 29.5713C27.4219 29.0133 28.1101 28.3083 28.6607 27.4563C29.2113 26.6044 29.5684 25.6725 29.7321 24.6606ZM27.3326 18.0088C25.9561 16.7886 24.3452 16.1784 22.5 16.1784C21.9345 16.1784 21.3579 16.2491 20.7701 16.3905C21.7448 17.6554 22.66 19.0765 23.5156 20.6539C24.029 20.4604 24.5126 20.2354 24.9665 19.9787C25.4204 19.722 25.7794 19.4932 26.0435 19.2923C26.3076 19.0914 26.5513 18.8793 26.7745 18.6561C26.9978 18.4329 27.1373 18.2822 27.1931 18.2041C27.2489 18.126 27.2954 18.0609 27.3326 18.0088ZM29.8214 23.4217C29.7991 21.6955 29.2448 20.1702 28.1585 18.8458L28.1473 18.857C28.0803 18.9463 28.0097 19.0374 27.9353 19.1304C27.8608 19.2234 27.699 19.389 27.4498 19.6271C27.2005 19.8652 26.9364 20.0903 26.6574 20.3023C26.3783 20.5144 26.0063 20.7562 25.5413 21.0278C25.0763 21.2993 24.587 21.5393 24.0736 21.7476C24.2597 22.142 24.4233 22.4954 24.5647 22.8079C24.5796 22.8451 24.6038 22.9083 24.6373 22.9976C24.6707 23.0869 24.6986 23.1502 24.721 23.1874C24.9888 23.1502 25.266 23.1241 25.5524 23.1092C25.8389 23.0944 26.1123 23.0869 26.3728 23.0869C26.6332 23.0869 26.8899 23.0925 27.1428 23.1037C27.3958 23.1148 27.6339 23.1297 27.8571 23.1483C28.0803 23.1669 28.2905 23.1874 28.4877 23.2097C28.6849 23.232 28.8635 23.2562 29.0234 23.2822C29.1834 23.3083 29.3192 23.3306 29.4308 23.3492C29.5424 23.3678 29.6354 23.3845 29.7098 23.3994L29.8214 23.4217ZM29.9219 19.1974C29.9219 19.1974 30.1135 19.5257 30.4966 20.1823C30.8798 20.839 31.0714 21.9448 31.0714 23.4999C31.0714 25.0549 30.6882 26.4891 29.9219 27.8023C29.1555 29.1156 28.1157 30.1554 26.8024 30.9217C25.4892 31.6881 24.055 32.0713 22.5 32.0713C20.9449 32.0713 19.5108 31.6881 18.1975 30.9217C16.8843 30.1554 15.8445 29.1156 15.0781 27.8023C14.3117 26.4891 13.9286 25.0549 13.9286 23.4999C13.9286 21.9448 14.3117 20.5106 15.0781 19.1974C15.8445 17.8842 16.8843 16.8444 18.1975 16.078C19.5108 15.3116 20.9449 14.9284 22.5 14.9284C24.055 14.9284 25.4892 15.3116 26.8024 16.078C28.1157 16.8444 29.1555 17.8842 29.9219 19.1974Z" fill="#FF7657"/>
</svg>
