<svg width="45" height="45" viewBox="0 0 45 45" fill="none" xmlns="http://www.w3.org/2000/svg">
<rect x="0.5" y="0.5" width="44" height="44" rx="22" fill="white"/>
<rect x="0.5" y="0.5" width="44" height="44" rx="22" stroke="white"/>
<path d="M17.8237 20.4759V31.5361H14.1406V20.4759H17.8237ZM18.058 17.0607C18.0655 17.6038 17.8776 18.0577 17.4944 18.4223C17.1112 18.7869 16.6071 18.9692 15.9821 18.9692H15.9598C15.3497 18.9692 14.8586 18.7869 14.4866 18.4223C14.1146 18.0577 13.9286 17.6038 13.9286 17.0607C13.9286 16.5101 14.1202 16.0544 14.5034 15.6935C14.8865 15.3326 15.3869 15.1522 16.0045 15.1522C16.622 15.1522 17.1168 15.3326 17.4888 15.6935C17.8609 16.0544 18.0506 16.5101 18.058 17.0607ZM31.0714 25.1968V31.5361H27.3996V25.621C27.3996 24.8397 27.2489 24.2277 26.9475 23.785C26.6462 23.3423 26.1756 23.121 25.5357 23.121C25.067 23.121 24.6745 23.2493 24.3583 23.506C24.042 23.7627 23.8058 24.0808 23.6496 24.4602C23.5677 24.6835 23.5268 24.9848 23.5268 25.3643V31.5361H19.8549C19.8698 28.5674 19.8772 26.1604 19.8772 24.3152C19.8772 22.4699 19.8735 21.3687 19.8661 21.0116L19.8549 20.4759H23.5268V22.083H23.5045C23.6533 21.8449 23.8058 21.6366 23.9621 21.458C24.1183 21.2794 24.3285 21.086 24.5926 20.8777C24.8568 20.6693 25.1804 20.5075 25.5636 20.3922C25.9468 20.2768 26.3728 20.2192 26.8415 20.2192C28.1138 20.2192 29.1369 20.6414 29.9107 21.4859C30.6845 22.3304 31.0714 23.5674 31.0714 25.1968Z" fill="#FF7657"/>
</svg>
