<svg width="16" height="16" viewBox="0 0 16 16" fill="none" xmlns="http://www.w3.org/2000/svg">
<path d="M11.763 7.16636L7.52414 11.4052C7.39691 11.5324 7.24624 11.5961 7.07213 11.5961C6.89802 11.5961 6.74735 11.5324 6.62012 11.4052L3.667 8.45208C3.53976 8.32485 3.47615 8.17418 3.47615 8.00007C3.47615 7.82596 3.53976 7.67529 3.667 7.54806L4.69155 6.52351C4.81878 6.39628 4.96945 6.33266 5.14356 6.33266C5.31767 6.33266 5.46834 6.39628 5.59557 6.52351L7.07213 8.00007L9.83441 5.23779C9.96164 5.11056 10.1123 5.04694 10.2864 5.04694C10.4605 5.04694 10.6112 5.11056 10.7384 5.23779L11.763 6.26235C11.8902 6.38958 11.9538 6.54025 11.9538 6.71436C11.9538 6.88846 11.8902 7.03913 11.763 7.16636ZM12.446 10.7423C12.446 10.7423 12.5682 10.533 12.8126 10.1145C13.0571 9.69594 13.1793 8.99114 13.1793 8.00007C13.1793 7.009 12.9349 6.09494 12.446 5.25788C11.9572 4.42083 11.2942 3.75788 10.4572 3.26904C9.62012 2.7802 8.70606 2.53578 7.71499 2.53578C6.72392 2.53578 5.80985 2.7802 4.9728 3.26904C4.13575 3.75788 3.4728 4.42083 2.98396 5.25788C2.49512 6.09494 2.2507 7.009 2.2507 8.00007C2.2507 8.99114 2.49512 9.9052 2.98396 10.7423C3.4728 11.5793 4.13575 12.2423 4.9728 12.7311C5.80985 13.2199 6.72392 13.4644 7.71499 13.4644C8.70606 13.4644 9.62012 13.2199 10.4572 12.7311C11.2942 12.2423 11.9572 11.5793 12.446 10.7423ZM14.3947 4.12786C14.3947 4.12786 14.5671 4.42334 14.912 5.0143C15.2568 5.60526 15.4293 6.60052 15.4293 8.00007C15.4293 9.39962 15.0844 10.6904 14.3947 11.8723C13.7049 13.0542 12.7691 13.99 11.5872 14.6798C10.4053 15.3695 9.11454 15.7144 7.71499 15.7144C6.31543 15.7144 5.0247 15.3695 3.84278 14.6798C2.66086 13.99 1.72503 13.0542 1.0353 11.8723C0.345568 10.6904 0.000701904 9.39962 0.000701904 8.00007C0.000701904 6.60052 0.345568 5.30978 1.0353 4.12786C1.72503 2.94594 2.66086 2.01011 3.84278 1.32038C5.0247 0.630651 6.31543 0.285784 7.71499 0.285784C9.11454 0.285784 10.4053 0.630651 11.5872 1.32038C12.7691 2.01011 13.7049 2.94594 14.3947 4.12786Z" fill="#FF7657"/>
</svg>
